<?xml version="1.0" encoding="UTF-8" standalone="no"?>
<svg
   xmlns:dc="http://purl.org/dc/elements/1.1/"
   xmlns:cc="http://creativecommons.org/ns#"
   xmlns:rdf="http://www.w3.org/1999/02/22-rdf-syntax-ns#"
   xmlns:svg="http://www.w3.org/2000/svg"
   xmlns="http://www.w3.org/2000/svg"
   xmlns:sodipodi="http://sodipodi.sourceforge.net/DTD/sodipodi-0.dtd"
   xmlns:inkscape="http://www.inkscape.org/namespaces/inkscape"
   version="1.1"
   id="svg977"
   width="512"
   height="512"
   viewBox="0 0 512 512"
   sodipodi:docname="aa.svg"
   inkscape:version="1.0.2 (e86c870879, 2021-01-15)">
  <metadata
     id="metadata983">
    <rdf:RDF>
      <cc:Work
         rdf:about="">
        <dc:format>image/svg+xml</dc:format>
        <dc:type
           rdf:resource="http://purl.org/dc/dcmitype/StillImage" />
        <dc:title></dc:title>
      </cc:Work>
    </rdf:RDF>
  </metadata>
  <defs
     id="defs981" />
  <sodipodi:namedview
     pagecolor="#ffffff"
     bordercolor="#666666"
     borderopacity="1"
     objecttolerance="10"
     gridtolerance="10"
     guidetolerance="10"
     inkscape:pageopacity="0"
     inkscape:pageshadow="2"
     inkscape:window-width="1916"
     inkscape:window-height="1044"
     id="namedview979"
     showgrid="false"
     inkscape:zoom="1.1873269"
     inkscape:cx="303.26016"
     inkscape:cy="176.88609"
     inkscape:window-x="3840"
     inkscape:window-y="16"
     inkscape:window-maximized="0"
     inkscape:current-layer="g985" />
  <g
     inkscape:groupmode="layer"
     inkscape:label="Image"
     id="g985">
    <path
       style="fill:#000000"
       d="m 247.86484,508.9513 c -8.71614,-2.52614 -17.4303,-11.81247 -18.91872,-20.16094 l -0.66857,-3.75 5.86129,0.0362 5.86129,0.0362 2,4.21376 c 2.6278,5.53655 8.64418,8.71384 16.5,8.71384 7.85582,0 13.8722,-3.17729 16.5,-8.71376 l 2,-4.21376 5.88084,-0.0362 5.88084,-0.0362 -0.59681,3.67775 c -1.35973,8.37899 -10.36635,17.75636 -19.48756,20.28974 -4.43915,1.23295 -16.47617,1.20025 -20.8126,-0.0566 z M 133.24605,406.01736 c -13.23561,-3.34035 -22.78756,-13.42148 -22.71838,-23.977 0.0457,-6.97334 6.79835,-15.32536 15.94636,-19.72328 7.19001,-3.45661 21.75949,-4.36827 30.27029,-1.89411 11.65926,3.38944 20.78937,13.28917 20.73385,22.48158 -0.0498,8.23953 -6.26794,16.10363 -16.3909,20.72953 -4.75451,2.17268 -7.69305,2.76359 -15,3.01636 -4.99792,0.17289 -10.77648,-0.11199 -12.84122,-0.63308 z m 224,0 c -12.99047,-3.27848 -22.74592,-13.28472 -22.74592,-23.33069 0,-9.00769 9.23616,-18.91485 20.75581,-22.2637 8.5108,-2.47416 23.08028,-1.5625 30.27029,1.89411 16.30563,7.83895 20.57839,22.60294 9.89546,34.19255 -5.96325,6.46937 -14.19035,9.75717 -25.38159,10.14328 -4.97198,0.17154 -10.7293,-0.11446 -12.79405,-0.63555 z M 226.68992,338.5466 c -5.23502,-4.40498 -7.71856,-11.61047 -10.34233,-30.00624 -0.66753,-4.68024 -1.39134,-30.40841 -1.74424,-62 l -0.60322,-54 -69.64131,-0.25677 -69.641323,-0.25676 -0.62674,18.25676 c -0.34471,10.04123 -1.07995,33.10677 -1.63388,51.25677 -1.64035,53.74846 -3.97925,71.15978 -10.25485,76.33976 -3.87247,3.1964 -15.78679,0.61885 -17.16159,-3.71274 -4.50369,-14.1899 -5.96806,-137.6083 -2.09426,-176.50767 5.52331,-55.46329 23.62888,-98.650809 54.1551,-129.17703 C 109.07022,16.513739 125.50337,6.4310152 137.74656,3.5443592 c 8.42524,-1.986473 12.94644,-1.877371 21.6023,0.521292 25.7872,7.1459988 48.352,28.1412228 67.86302,63.1425728 17.68493,31.725491 20.24688,52.714736 20.24147,165.832136 -0.004,78.8548 -1.18091,99.20587 -6.09996,105.45942 -2.83453,3.60352 -10.40785,3.6277 -14.66347,0.0468 z M 197.38358,137.98948 c 7.89552,-1.28113 11.91054,-3.28013 12.6706,-6.30846 1.27619,-5.08472 -5.32619,-23.40179 -12.91401,-35.827545 -14.83804,-24.298655 -38.21192,-36.521094 -60.03701,-31.393964 -20.02821,4.705007 -34.48873,19.420824 -50.615383,51.508969 -2.76191,5.49554 -5.29335,11.35036 -5.62542,13.01072 -0.52928,2.64643 -0.24963,3.15577 2.267,4.12893 4.70433,1.81912 15.29459,3.80519 25.393343,4.7622 13.51682,1.28093 81.14205,1.3716 88.86088,0.11915 z m 252.75656,200.03967 c -4.50262,-3.95336 -7.03017,-10.67238 -9.26119,-24.61914 -1.43472,-8.96887 -1.83846,-20.48752 -2.3088,-65.86965 l -0.57002,-55 -69.63808,-0.25677 -69.63809,-0.25676 -0.5955,12.75676 c -0.32752,7.01623 -0.84901,23.55677 -1.15885,36.75677 -1.57422,67.06425 -4.24447,90.95548 -10.76758,96.33976 -2.28385,1.88512 -9.60179,1.78049 -13.41582,-0.19182 -4.13304,-2.13728 -4.85991,-4.91475 -6.45047,-24.64794 -1.74647,-21.66766 -1.78907,-133.88057 -0.0575,-151.5 3.83209,-38.99329 14.02648,-74.580815 28.1629,-98.313625 19.69338,-33.062077 44.99348,-55.0118628 69.17109,-60.0112528 7.33978,-1.517704 8.45679,-1.513414 16.07443,0.06175 28.23307,5.83797 55.03177,31.0511028 74.68173,70.2631248 9.14997,18.258988 12.90346,33.484633 15.16125,61.500003 1.64995,20.47313 2.41443,141.15169 1.06426,168 -1.70174,33.83912 -2.77527,37.26221 -11.85428,37.79911 -4.45212,0.26329 -5.48226,-0.0734 -8.59948,-2.81032 z M 421.38358,137.98948 c 13.12555,-2.12975 14.69618,-4.81174 10.55304,-18.0203 -5.52104,-17.60144 -17.24412,-35.937985 -28.52996,-44.624885 -12.37814,-9.527658 -26.94906,-13.688906 -39.856,-11.382308 -17.73496,3.169414 -31.83958,14.926908 -45.40136,37.846203 -7.84746,13.26215 -13.57112,25.21484 -13.62212,28.44699 -0.0149,0.94315 0.78415,2.14896 1.77563,2.67958 2.71284,1.45186 16.54642,4.03779 26.69732,4.99056 13.20876,1.23978 80.83558,1.28887 88.38345,0.0642 z"
       id="path989" />
  </g>
</svg>
