<?xml version="1.0" encoding="UTF-8" standalone="no"?>
<!-- Created with Inkscape (http://www.inkscape.org/) -->

<svg
   version="1.1"
   id="svg1662"
   width="512"
   height="512"
   viewBox="0 0 512 512"
   sodipodi:docname="alert.svg"
   inkscape:version="1.1.2 (0a00cf5339, 2022-02-04)"
   xmlns:inkscape="http://www.inkscape.org/namespaces/inkscape"
   xmlns:sodipodi="http://sodipodi.sourceforge.net/DTD/sodipodi-0.dtd"
   xmlns="http://www.w3.org/2000/svg"
   xmlns:svg="http://www.w3.org/2000/svg">
  <defs
     id="defs1666" />
  <sodipodi:namedview
     id="namedview1664"
     pagecolor="#ffffff"
     bordercolor="#666666"
     borderopacity="1.0"
     inkscape:pageshadow="2"
     inkscape:pageopacity="0.0"
     inkscape:pagecheckerboard="0"
     showgrid="false"
     inkscape:zoom="1.2402344"
     inkscape:cx="255.59685"
     inkscape:cy="256"
     inkscape:window-width="2560"
     inkscape:window-height="1570"
     inkscape:window-x="0"
     inkscape:window-y="0"
     inkscape:window-maximized="1"
     inkscape:current-layer="g1668" />
  <g
     inkscape:groupmode="layer"
     inkscape:label="Image"
     id="g1668">
    <path
       style="fill:#000000;stroke-width:1.19446"
       d="M 230.89531,509.72178 C 124.05647,498.33383 35.770184,422.45344 9.4610684,319.40328 -25.339138,183.09437 56.745526,44.320764 192.70395,9.6100244 329.01287,-25.190182 467.78647,56.894482 502.49719,192.85293 540.409,341.34963 440.04013,489.06649 287.86996,508.72835 c -12.77674,1.65087 -45.46016,2.22076 -56.97465,0.99343 z m 66.22758,-40.89914 c 42.96846,-8.69135 81.17203,-29.10408 111.80936,-59.74142 30.58083,-30.58082 51.11821,-69.11905 59.86765,-112.34122 2.42182,-11.96379 2.78064,-17.20446 2.78064,-40.6119 0,-23.40743 -0.35882,-28.6481 -2.78064,-40.61189 C 458.86003,166.41335 432.83774,121.95604 395.89194,90.957864 367.72696,67.32695 335.35477,51.567671 299.04967,43.813521 c -13.75204,-2.937208 -17.28712,-3.207326 -42.4733,-3.245345 -24.13779,-0.03643 -29.14025,0.296061 -41.20913,2.739165 -43.22217,8.74944 -81.76041,29.286807 -112.34123,59.867639 -30.625924,30.62592 -51.105285,69.05532 -59.867637,112.34123 -2.421819,11.96379 -2.780649,17.20446 -2.780649,40.61189 0,23.40744 0.35883,28.64811 2.780649,40.6119 5.16544,25.5172 16.579785,54.34408 29.664544,74.91768 31.852553,50.08283 84.963533,86.35894 141.947083,96.95338 19.27689,3.58399 18.29225,3.51425 44.79253,3.17216 19.61514,-0.25324 27.08753,-0.84221 37.56036,-2.96058 z m -53.68567,-94.29355 c -8.45911,-5.02323 -11.78368,-10.51409 -12.30558,-20.324 -0.34903,-6.56093 0.0651,-8.80277 2.45109,-13.26979 4.38444,-8.20834 11.15366,-12.37432 20.9548,-12.89622 6.68885,-0.35618 8.89839,0.0473 13.38627,2.4445 8.20835,4.38445 12.37433,11.15366 12.89623,20.9548 0.52702,9.89736 -2.55748,16.53801 -10.28025,22.13236 -4.31367,3.1248 -6.43194,3.78837 -13.1366,4.1152 -7.10518,0.34636 -8.6574,-0.004 -13.96596,-3.15685 z m 2.89262,-86.4774 c -2.21664,-1.49379 -5.26617,-4.54997 -6.77673,-6.79148 l -2.74648,-4.07553 0.32913,-62.40104 c 0.32119,-60.89787 0.38846,-62.48046 2.79187,-65.6986 4.04048,-5.41016 8.36163,-7.93063 14.46944,-8.43983 7.84546,-0.65408 14.34601,3.08464 18.03851,10.37466 l 2.72009,5.37018 -0.33115,61.1301 c -0.32442,59.89161 -0.38176,61.19842 -2.8299,64.50126 -6.55815,8.84776 -17.62524,11.44813 -25.66478,6.03028 z"
       id="path1771"
       inkscape:export-filename="/home/jini/ws/images/aa/icons/alert.png"
       inkscape:export-xdpi="96"
       inkscape:export-ydpi="96" />
  </g>
</svg>
