<?xml version="1.0" encoding="UTF-8" standalone="no"?>
<!-- Created with Inkscape (http://www.inkscape.org/) -->

<svg
   version="1.1"
   id="svg327"
   width="512"
   height="512"
   viewBox="0 0 512 512"
   sodipodi:docname="analytics.svg"
   inkscape:version="1.1.2 (0a00cf5339, 2022-02-04)"
   xmlns:inkscape="http://www.inkscape.org/namespaces/inkscape"
   xmlns:sodipodi="http://sodipodi.sourceforge.net/DTD/sodipodi-0.dtd"
   xmlns="http://www.w3.org/2000/svg"
   xmlns:svg="http://www.w3.org/2000/svg">
  <defs
     id="defs331" />
  <sodipodi:namedview
     id="namedview329"
     pagecolor="#ffffff"
     bordercolor="#666666"
     borderopacity="1.0"
     inkscape:pageshadow="2"
     inkscape:pageopacity="0.0"
     inkscape:pagecheckerboard="0"
     showgrid="false"
     inkscape:zoom="1.1819823"
     inkscape:cx="401.02125"
     inkscape:cy="258.46411"
     inkscape:window-width="2560"
     inkscape:window-height="1570"
     inkscape:window-x="0"
     inkscape:window-y="0"
     inkscape:window-maximized="1"
     inkscape:current-layer="g333" />
  <g
     inkscape:groupmode="layer"
     inkscape:label="Image"
     id="g333">
    <path
       style="fill:#000000;stroke-width:0.612006"
       d="m 58.628203,510.59245 c -12.880857,-1.85053 -22.615871,-8.87326 -28.360231,-20.45898 -3.882086,-7.82959 -3.770152,-5.10622 -3.770152,-91.72662 0,-86.34172 -0.122518,-83.30294 3.686917,-91.46735 9.17093,-19.65523 33.166207,-26.82471 52.076618,-15.55984 7.555602,4.50085 14.394964,13.9837 16.231044,22.50439 1.054919,4.8955 1.208232,163.68135 0.162921,168.73091 -1.470902,7.10547 -6.37106,14.93071 -12.60968,20.13663 -7.131897,5.95141 -18.312664,9.1489 -27.417437,7.84086 z M 185.42211,510.2813 c -15.5423,-2.80825 -26.96291,-14.51148 -29.7662,-30.50268 -0.42596,-2.42986 -0.63655,-42.483 -0.63655,-121.05024 0,-130.62289 -0.26231,-122.31907 4.14953,-131.36708 6.7401,-13.82302 22.38,-22.04434 37.52559,-19.72582 14.75421,2.25861 25.86667,12.05284 30.32338,26.72615 1.04432,3.43847 1.11329,9.98903 1.28509,122.02254 0.20178,131.63562 0.3885,125.08438 -3.81146,133.7433 -7.16986,14.78181 -23.15732,23.02892 -39.06938,20.15383 z m 132.39119,0.58496 c -6.06597,-0.93613 -9.34744,-1.78707 -12.62834,-3.27468 -9.88636,-4.48269 -16.7515,-12.61976 -20.31834,-24.08278 -0.87706,-2.81854 -1.00302,-11.72368 -1.16986,-82.68154 -0.2079,-88.43319 -0.3191,-85.69536 3.82941,-94.28729 13.18293,-27.30312 52.21773,-27.29437 65.48373,0.0146 4.11679,8.47481 4.02921,6.3038 3.81574,94.60709 -0.20905,86.483 0.03,80.73895 -3.69676,88.87895 -1.57012,3.42951 -5.58328,9.14534 -7.59117,10.8116 -7.96753,6.61219 -13.61666,9.01744 -23.44037,9.98019 -1.51471,0.14841 -3.44254,0.16365 -4.28404,0.0337 z m 124.7447,-0.55142 c -12.08311,-2.23199 -21.88881,-9.80332 -26.8408,-20.72465 -3.88956,-8.5782 -3.68723,1.97659 -3.49776,-182.44651 0.1644,-160.07101 0.22272,-167.84837 1.28516,-171.35375 1.49159,-4.92132 4.74018,-10.98281 7.79416,-14.543 7.52469,-8.77197 20.58419,-13.71615 32.02604,-12.12474 12.85827,1.78843 22.60203,8.85621 28.44518,20.63304 3.96421,7.99001 3.73379,-3.12057 3.72865,179.75938 0,108.84869 -0.21763,167.30801 -0.62375,169.91742 -1.54337,9.91624 -6.36917,18.23917 -13.85065,23.8877 -8.15842,6.15972 -18.8139,8.77813 -28.46623,6.99511 z M 56.442913,225.26357 c -15.084819,-4.27979 -21.925651,-22.66952 -13.384292,-35.98008 2.510941,-3.91296 5.722574,-6.72748 10.114949,-8.86432 3.23954,-1.576 4.25969,-1.7619 9.738683,-1.77457 5.650359,-0.013 6.442365,0.1385 10.319798,1.97486 2.309894,1.09397 4.484113,1.98903 4.831611,1.98903 0.347558,0 4.103387,-2.16904 8.346433,-4.8201 4.242984,-2.65105 13.360299,-8.2628 20.260685,-12.47055 6.90038,-4.20776 18.74273,-11.44956 26.31632,-16.09291 7.57358,-4.64335 18.52087,-11.33339 24.32729,-14.86674 l 10.55712,-6.42429 v -4.37806 c 0,-17.94967 18.67283,-29.436513 34.69096,-21.34056 8.08572,4.08672 13.02359,12.31084 13.03894,21.71665 l 0.007,4.05417 5.04905,3.05784 c 2.777,1.6818 13.03576,7.95683 22.79728,13.94451 9.76152,5.98765 23.66938,14.50914 30.90637,18.93663 7.23699,4.42749 17.04148,10.44249 21.78771,13.36669 4.74617,2.92419 9.02252,5.31672 9.50295,5.31672 0.48036,0 1.43447,-0.39299 2.12023,-0.87332 3.00446,-2.10439 9.01414,-3.53278 13.95304,-3.31635 l 4.82935,0.21163 14.00822,-19.27824 c 7.70456,-10.60303 17.12165,-23.54698 20.92692,-28.76434 7.20473,-9.87835 30.82276,-42.442648 40.39235,-55.692665 9.55925,-13.235556 20.05206,-27.677569 23.45425,-32.281696 l 3.27743,-4.435379 -1.14109,-2.296702 c -1.93583,-3.896314 -2.71424,-7.823178 -2.42041,-12.210709 0.76303,-11.395848 8.78817,-20.1516904 20.45921,-22.3221444 9.52363,-1.77109945 20.69306,4.3989231 25.11922,13.8759194 1.51956,3.253515 1.71504,4.369597 1.71504,9.792124 0,5.570993 -0.16947,6.476967 -1.88903,10.098113 -4.38956,9.244005 -14.08712,14.706944 -24.3869,13.737911 l -3.71243,-0.349289 -2.44803,3.507638 c -2.18101,3.125024 -6.03139,8.448175 -20.97949,29.00429 -2.32538,3.197736 -6.42125,8.843504 -9.10196,12.546154 -2.68071,3.702636 -12.27025,16.921985 -21.31015,29.376345 -9.03989,12.45435 -17.14824,23.65069 -18.0187,24.88077 -0.87041,1.23008 -7.36607,10.17135 -14.43476,19.86949 -17.51692,24.03299 -15.87173,21.46201 -14.78987,23.11319 0.5003,0.76354 1.34751,2.86276 1.88272,4.66493 3.88091,13.06859 -4.19869,26.98433 -17.38721,29.94638 -5.32494,1.19596 -12.24938,0.44624 -16.5524,-1.79215 -7.70053,-4.00574 -12.81085,-12.63572 -12.836,-21.67648 l -0.0123,-4.34123 -3.20099,-1.88786 c -3.4612,-2.04135 -16.39328,-9.92693 -40.53336,-24.71606 -8.4151,-5.1554 -22.27853,-13.63333 -30.80765,-18.83983 l -15.50748,-9.46637 -2.91168,1.58473 c -1.60137,0.87161 -4.8015,2.02302 -7.11128,2.55869 -5.19729,1.20534 -9.80754,0.55445 -15.34186,-2.16601 -2.06094,-1.01308 -3.90332,-1.84195 -4.09415,-1.84195 -0.19087,0 -3.04877,1.69028 -6.35099,3.75616 -3.3022,2.06589 -11.64973,7.20839 -18.55011,11.42775 -6.90039,4.21938 -19.29353,11.80075 -27.54033,16.84748 -8.2468,5.04673 -20.0176,12.22854 -26.157312,15.95957 l -11.163077,6.7837 -0.01287,3.97804 c -0.03061,9.70054 -4.840734,17.6755 -13.131962,21.77322 -3.842065,1.89885 -5.243438,2.25821 -9.60607,2.46322 -3.07968,0.14474 -6.218418,-0.0751 -7.904988,-0.55359 z"
       id="path337"
       inkscape:export-filename="/home/jini/ws/images/aa/icons/analytics.png"
       inkscape:export-xdpi="96.080002"
       inkscape:export-ydpi="96.080002" />
  </g>
</svg>
