<?xml version="1.0" encoding="UTF-8" standalone="no"?>
<svg
   xmlns:dc="http://purl.org/dc/elements/1.1/"
   xmlns:cc="http://creativecommons.org/ns#"
   xmlns:rdf="http://www.w3.org/1999/02/22-rdf-syntax-ns#"
   xmlns:svg="http://www.w3.org/2000/svg"
   xmlns="http://www.w3.org/2000/svg"
   xmlns:sodipodi="http://sodipodi.sourceforge.net/DTD/sodipodi-0.dtd"
   xmlns:inkscape="http://www.inkscape.org/namespaces/inkscape"
   version="1.1"
   id="svg1053"
   width="512"
   height="512"
   viewBox="0 0 512 512"
   sodipodi:docname="copy.png"
   inkscape:version="1.0.2 (e86c870879, 2021-01-15)">
  <metadata
     id="metadata1059">
    <rdf:RDF>
      <cc:Work
         rdf:about="">
        <dc:format>image/svg+xml</dc:format>
        <dc:type
           rdf:resource="http://purl.org/dc/dcmitype/StillImage" />
        <dc:title></dc:title>
      </cc:Work>
    </rdf:RDF>
  </metadata>
  <defs
     id="defs1057" />
  <sodipodi:namedview
     pagecolor="#ffffff"
     bordercolor="#666666"
     borderopacity="1"
     objecttolerance="10"
     gridtolerance="10"
     guidetolerance="10"
     inkscape:pageopacity="0"
     inkscape:pageshadow="2"
     inkscape:window-width="1916"
     inkscape:window-height="1044"
     id="namedview1055"
     showgrid="false"
     inkscape:zoom="0.889"
     inkscape:cx="150.31924"
     inkscape:cy="148.08265"
     inkscape:window-x="3840"
     inkscape:window-y="16"
     inkscape:window-maximized="0"
     inkscape:current-layer="g1061" />
  <g
     inkscape:groupmode="layer"
     inkscape:label="Image"
     id="g1061">
    <path
       style="fill:#000000;stroke-width:1.02133"
       d="m 199.35406,509.53356 c -11.07721,-2.36033 -20.003,-8.50129 -27.87798,-19.18011 -5.77121,-7.82601 -9.29635,-15.62282 -11.19911,-24.76999 -2.03137,-9.76552 -2.09961,-271.99219 -0.0732,-281.52519 4.38985,-20.65203 18.08968,-37.53346 34.91212,-43.01997 7.96185,-2.59671 215.42108,-2.55201 223.39344,0.0481 16.52436,5.3893 29.58614,21.51651 34.61874,42.74335 1.31793,5.5588 1.46937,20.24837 1.44938,140.57198 -0.0145,88.06015 -0.34646,136.12588 -0.96287,139.47559 -3.53445,19.20631 -16.84146,37.00394 -32.71968,43.76139 l -5.99851,2.55281 -105.41937,0.17214 c -57.98065,0.0947 -107.53594,-0.2789 -110.12289,-0.83013 z m 216.19282,-32.19339 c 5.26052,-3.10093 9.931,-8.86592 12.26326,-15.13703 l 2.12825,-5.72263 0.009,-132.15569 0.009,-132.15572 -2.54899,-6.10963 c -2.84896,-6.82862 -8.47238,-12.86157 -13.67488,-14.67075 -4.7028,-1.63541 -209.28434,-1.63541 -213.98713,0 -5.20249,1.80918 -10.82591,7.84213 -13.67488,14.67075 l -2.54941,6.10963 0.009,132.15572 0.009,132.15569 2.15744,5.71433 c 1.95339,5.17384 4.34586,8.63637 9.0565,13.1072 4.64171,4.40541 6.7542,4.48441 113.8111,4.25637 96.49403,-0.20554 103.82618,-0.35757 106.98265,-2.21824 z M 105.48362,371.72636 C 99.869808,370.22343 89.362418,364.81915 84.354778,360.85909 72.335088,351.35391 62.206038,333.634 58.986808,316.47999 56.981018,305.79196 56.864198,98.380335 58.856668,85.436806 61.772978,66.491895 68.845498,49.150618 79.399338,35.067766 91.039698,19.535068 104.66917,9.451189 121.11217,4.2061415 l 8.10223,-2.5844787 h 87.16492 c 81.81342,0 87.52917,0.1288459 93.09762,2.0986936 19.15851,6.7773636 33.81672,23.7555076 40.87104,47.3397206 1.88371,6.297625 2.08063,10.378237 2.73,22.27548 0.34507,6.322113 2.03638,12.588435 -3.22598,19.142932 v 0 c 0,0 -4.08755,4.572112 -8.33582,4.572112 -4.01403,0 -5.14651,-0.531542 -7.91374,-3.714319 -3.67564,-4.227532 -4.90353,-9.191702 -4.93656,-19.957196 -0.0342,-11.117585 -2.82134,-18.900288 -9.97825,-27.861773 -4.36343,-5.463644 -7.52061,-8.28931 -11.49249,-10.285752 l -5.47633,-2.75264 h -85.33949 -85.33948 l -6.84542,2.664663 C 105.75269,42.322239 91.586628,59.074109 85.060648,81.420648 v 0 l -2.39507,118.511292 1.328081,109.97067 1.638199,7.88416 c 2.997365,14.42541 14.802102,21.73043 27.955582,23.81862 7.90732,1.25533 9.6755,2.17428 12.33766,6.41202 2.73365,4.35154 3.22337,9.48034 1.43855,15.0658 -2.21991,6.94705 -5.91179,9.43035 -13.77327,9.26441 -3.45472,-0.073 -7.10277,-0.35248 -8.10676,-0.62126 z"
       id="path1626"
       sodipodi:nodetypes="ssscssscsscssssscccsssccccssssssssssscsssscssscsscccsscccssssss"
       inkscape:export-xdpi="96.080002"
       inkscape:export-ydpi="96.080002" />
  </g>
</svg>
