<?xml version="1.0" encoding="UTF-8" standalone="no"?>
<svg
   xmlns:dc="http://purl.org/dc/elements/1.1/"
   xmlns:cc="http://creativecommons.org/ns#"
   xmlns:rdf="http://www.w3.org/1999/02/22-rdf-syntax-ns#"
   xmlns:svg="http://www.w3.org/2000/svg"
   xmlns="http://www.w3.org/2000/svg"
   xmlns:sodipodi="http://sodipodi.sourceforge.net/DTD/sodipodi-0.dtd"
   xmlns:inkscape="http://www.inkscape.org/namespaces/inkscape"
   version="1.1"
   id="svg891"
   width="512"
   height="512"
   viewBox="0 0 512 512"
   sodipodi:docname="create.svg"
   inkscape:export-filename="/home/jini/images/icons/aa-icons/create.png"
   inkscape:export-xdpi="96.080002"
   inkscape:export-ydpi="96.080002"
   inkscape:version="1.0.2 (e86c870879, 2021-01-15)">
  <metadata
     id="metadata897">
    <rdf:RDF>
      <cc:Work
         rdf:about="">
        <dc:format>image/svg+xml</dc:format>
        <dc:type
           rdf:resource="http://purl.org/dc/dcmitype/StillImage" />
        <dc:title></dc:title>
      </cc:Work>
    </rdf:RDF>
  </metadata>
  <defs
     id="defs895" />
  <sodipodi:namedview
     pagecolor="#ffffff"
     bordercolor="#666666"
     borderopacity="1"
     objecttolerance="10"
     gridtolerance="10"
     guidetolerance="10"
     inkscape:pageopacity="0"
     inkscape:pageshadow="2"
     inkscape:window-width="1916"
     inkscape:window-height="1044"
     id="namedview893"
     showgrid="false"
     inkscape:zoom="0.75395261"
     inkscape:cx="186.35652"
     inkscape:cy="252.62818"
     inkscape:window-x="3840"
     inkscape:window-y="16"
     inkscape:window-maximized="0"
     inkscape:current-layer="g899" />
  <g
     inkscape:groupmode="layer"
     inkscape:label="Image"
     id="g899">
    <path
       style="fill:#000000;stroke-width:1.45728"
       d="M 87.169616,502.97753 C 66.129764,498.35623 49.983728,488.97111 34.441339,472.32847 22.952167,460.02598 15.367598,446.58185 10.572178,430.01888 L 7.2158436,418.42637 V 265.41265 C 7.2158436,93.358401 6.4414046,106.08217 18.432871,81.122169 26.200152,64.954741 44.038972,46.657196 60.285063,38.193771 84.384708,25.639019 72.329486,26.56321 218.52048,26.062934 L 348.21781,25.6191 324.94675,48.943229 301.67571,72.267361 198.89261,72.659962 C 96.372184,73.051559 96.089044,73.060871 88.094518,76.303634 71.821873,82.904194 58.493141,99.247298 54.73565,117.20681 c -1.11926,5.34967 -1.609078,51.02061 -1.594156,148.64191 0.02376,155.04337 -0.102883,152.66924 8.88485,166.67538 5.9215,9.22784 14.514968,16.75662 24.436012,21.40848 l 8.189888,3.84017 H 246.9373 399.22239 l 8.27024,-3.87695 c 17.01668,-7.97711 28.7626,-23.71256 31.77461,-42.56695 1.02947,-6.44432 1.53023,-42.95118 1.43699,-104.76086 l -0.14311,-94.86964 23.46029,-23.41877 23.46031,-23.41879 -0.49528,126.78279 c -0.55598,142.33135 0.0235,134.44721 -11.62102,158.11416 -4.81332,9.78284 -8.70895,15.02168 -18.53103,24.92049 -13.49599,13.60142 -24.65591,20.66514 -41.58197,26.31951 l -10.20092,3.40777 -154.47098,0.26781 C 125.66757,504.8899 94.398904,504.56549 87.169644,502.97753 Z M 154.40044,368.54784 c -5.56954,-1.31542 -9.47226,-6.37715 -9.47226,-12.28528 0,-3.05292 2.99141,-17.85745 6.64759,-32.89896 3.6562,-15.04151 8.27612,-34.23382 10.26653,-42.64957 1.99039,-8.41575 4.23316,-17.62206 4.9839,-20.45846 1.10188,-4.163 24.53865,-28.32053 121.58637,-125.32551 C 374.28371,49.096729 410.61178,13.720678 415.5561,11.118442 c 9.39669,-4.9455548 27.30442,-5.1662993 36.12813,-0.445345 3.206,1.71531 15.40981,12.845657 27.11957,24.734101 24.54528,24.919853 26.80014,28.871144 25.80509,45.21956 -0.33185,5.452195 -1.80558,12.536175 -3.27497,15.742185 -1.77269,3.867837 -16.94879,19.988537 -45.10519,47.912677 -23.33849,23.14596 -77.84536,77.37169 -121.12637,120.50159 l -78.69277,78.41801 -36.43183,9.63936 c -20.03751,5.30168 -41.35014,10.94085 -47.36139,12.53153 -14.95421,3.95716 -14.92722,3.95245 -18.21593,3.17573 z m 48.78183,-39.76441 c 13.20449,-4.08921 24.32376,-7.75054 24.70948,-8.13627 0.38574,-0.38572 -7.84362,-9.24627 -18.28747,-19.69011 l -18.98881,-18.9888 -7.04059,25.96813 c -3.87233,14.28248 -7.33937,26.79527 -7.70454,27.80625 -0.3851,1.06614 0.16924,1.55204 1.31992,1.15694 1.09111,-0.37466 12.78751,-4.02692 25.99201,-8.11614 z M 471.32086,90.442221 C 482.61138,78.50416 481.9753,76.461872 460.10662,54.436032 450.66531,44.92688 441.09706,36.171007 438.84386,34.978537 c -5.73092,-3.032992 -11.9233,-0.70558 -19.98919,7.512969 l -6.43946,6.561321 24.71889,24.751009 c 13.5954,13.613057 25.12282,24.751013 25.61653,24.751013 0.4937,0 4.35031,-3.650686 8.57023,-8.112628 z"
       id="path903" />
  </g>
</svg>
