<?xml version="1.0" encoding="UTF-8" standalone="no"?>
<svg
   xmlns:dc="http://purl.org/dc/elements/1.1/"
   xmlns:cc="http://creativecommons.org/ns#"
   xmlns:rdf="http://www.w3.org/1999/02/22-rdf-syntax-ns#"
   xmlns:svg="http://www.w3.org/2000/svg"
   xmlns="http://www.w3.org/2000/svg"
   xmlns:sodipodi="http://sodipodi.sourceforge.net/DTD/sodipodi-0.dtd"
   xmlns:inkscape="http://www.inkscape.org/namespaces/inkscape"
   version="1.1"
   id="svg963"
   width="512"
   height="512"
   viewBox="0 0 512 512"
   sodipodi:docname="default.avatar.svg"
   inkscape:version="1.0.2 (e86c870879, 2021-01-15)">
  <metadata
     id="metadata969">
    <rdf:RDF>
      <cc:Work
         rdf:about="">
        <dc:format>image/svg+xml</dc:format>
        <dc:type
           rdf:resource="http://purl.org/dc/dcmitype/StillImage" />
        <dc:title></dc:title>
      </cc:Work>
    </rdf:RDF>
  </metadata>
  <defs
     id="defs967" />
  <sodipodi:namedview
     pagecolor="#ffffff"
     bordercolor="#666666"
     borderopacity="1"
     objecttolerance="10"
     gridtolerance="10"
     guidetolerance="10"
     inkscape:pageopacity="0"
     inkscape:pageshadow="2"
     inkscape:window-width="1916"
     inkscape:window-height="1044"
     id="namedview965"
     showgrid="false"
     inkscape:zoom="0.86816406"
     inkscape:cx="209.40716"
     inkscape:cy="313.70428"
     inkscape:window-x="3840"
     inkscape:window-y="16"
     inkscape:window-maximized="0"
     inkscape:current-layer="g971" />
  <g
     inkscape:groupmode="layer"
     inkscape:label="Image"
     id="g971">
    <path
       style="fill:#000000;stroke-width:2.57497"
       d="M 211.30736,509.29318 C 167.12519,500.94502 130.29645,484.23491 96.054092,456.99998 -6.8552046,375.15022 -31.338175,224.89356 40.42323,115.58282 77.467978,59.154306 137.80057,18.214556 206.09993,3.1599356 c 23.38114,-5.1537 80.65251,-4.48223 105.57376,1.23778 96.93251,22.2482704 173.9353,99.2236644 196.102,196.0321744 7.37098,32.19128 6.30136,87.72491 -2.30622,119.73608 -24.7917,92.19925 -96.3877,162.6791 -188.64584,185.70502 -27.91461,6.96697 -78.1354,8.59577 -105.51627,3.42219 z M 112.32632,348.4732 c 21.74909,-21.77188 47.44366,-34.91468 78.96519,-40.39076 17.14506,-2.97855 35.77169,-3.6467 77.89518,-2.79423 51.35903,1.03938 56.71419,1.59995 74.06573,7.75333 35.21507,12.4883 68.76816,40.77712 84.04036,70.85492 2.33709,4.60276 5.27436,8.36866 6.52726,8.36866 3.8304,0 23.18003,-32.68744 31.18757,-52.6853 C 486.3376,286.31066 485.91325,222.66854 463.86623,168.41051 437.57085,103.6972 372.90154,50.407326 302.75914,35.652416 c -23.67659,-4.98053 -69.218,-4.98053 -92.89461,0 -86.07901,18.10728 -155.004205,87.128524 -173.925073,174.167414 -4.966842,22.84824 -5.526072,67.24689 -1.1142,88.4589 5.427189,26.09355 17.996763,57.17308 31.469289,77.81092 l 12.848995,19.68268 8.116348,-15.16562 c 4.463993,-8.3411 15.743891,-22.80118 25.066431,-32.13351 z m 124.30001,-61.73886 c -36.39518,-7.69648 -65.67983,-36.58151 -74.87838,-73.85662 -10.3389,-41.89612 12.29822,-88.32637 52.74784,-108.18938 18.86497,-9.263744 52.24396,-11.481884 72.33953,-4.807204 40.17015,13.342384 65.63853,49.491264 65.70589,93.260494 0.0293,19.1219 -0.83934,22.80022 -9.54588,40.41668 -11.02872,22.31513 -23.78803,34.76204 -46.77146,45.62632 -17.19843,8.1297 -41.9986,11.27134 -59.59754,7.54971 z"
       id="path1536" />
  </g>
</svg>
