<?xml version="1.0" encoding="UTF-8" standalone="no"?>
<svg
   xmlns:dc="http://purl.org/dc/elements/1.1/"
   xmlns:cc="http://creativecommons.org/ns#"
   xmlns:rdf="http://www.w3.org/1999/02/22-rdf-syntax-ns#"
   xmlns:svg="http://www.w3.org/2000/svg"
   xmlns="http://www.w3.org/2000/svg"
   xmlns:sodipodi="http://sodipodi.sourceforge.net/DTD/sodipodi-0.dtd"
   xmlns:inkscape="http://www.inkscape.org/namespaces/inkscape"
   version="1.1"
   id="svg1686"
   width="512"
   height="512"
   viewBox="0 0 512 512"
   sodipodi:docname="del.png"
   inkscape:export-xdpi="96.080002"
   inkscape:export-ydpi="96.080002"
   inkscape:version="1.0.2 (e86c870879, 2021-01-15)">
  <metadata
     id="metadata1692">
    <rdf:RDF>
      <cc:Work
         rdf:about="">
        <dc:format>image/svg+xml</dc:format>
        <dc:type
           rdf:resource="http://purl.org/dc/dcmitype/StillImage" />
        <dc:title></dc:title>
      </cc:Work>
    </rdf:RDF>
  </metadata>
  <defs
     id="defs1690" />
  <sodipodi:namedview
     pagecolor="#ffffff"
     bordercolor="#666666"
     borderopacity="1"
     objecttolerance="10"
     gridtolerance="10"
     guidetolerance="10"
     inkscape:pageopacity="0"
     inkscape:pageshadow="2"
     inkscape:window-width="1916"
     inkscape:window-height="1044"
     id="namedview1688"
     showgrid="false"
     inkscape:zoom="0.9761148"
     inkscape:cx="233.4592"
     inkscape:cy="209.86137"
     inkscape:window-x="3840"
     inkscape:window-y="16"
     inkscape:window-maximized="0"
     inkscape:current-layer="g1694" />
  <g
     inkscape:groupmode="layer"
     inkscape:label="Image"
     id="g1694">
    <path
       style="fill:#000000;stroke-width:3.516"
       d="M 211.2516,504.32267 C 126.33187,488.85586 54.196724,430.469 22.097583,351.21968 6.9080446,313.71837 4.1345831,298.80497 4.1160187,254.52949 4.1019589,220.57304 5.6674557,207.19012 12.137226,185.96733 45.62041,76.132234 142.11942,3.134954 253.83309,3.134954 c 71.77559,0 131.40044,24.309114 180.80622,73.714914 45.7262,45.726192 69.81086,100.568562 72.84741,165.878292 2.23146,47.99508 -4.73849,81.57528 -25.91906,124.87396 -35.05286,71.65729 -100.82945,121.21153 -181.1051,136.43958 -33.46581,6.34834 -55.51699,6.41781 -89.21096,0.28093 z M 325.44248,455.56226 C 447.17409,412.67777 502.28293,274.46652 444.14121,157.86968 430.34293,130.19871 393.31044,90.191443 366.58723,74.085904 307.4246,38.429718 229.37019,33.740042 167.30151,62.112397 93.541796,95.828907 44.143686,173.04407 44.293257,254.38919 c 0.153298,83.47777 43.554261,153.29647 118.497183,190.62596 36.16758,18.01525 56.28287,22.24983 99.44327,20.93427 28.83421,-0.87889 42.6749,-3.15336 63.20877,-10.38716 z M 171.52073,339.96846 c -2.32057,-2.32057 -4.21922,-8.8427 -4.21922,-14.49366 0,-8.09753 5.95956,-16.38 28.12806,-39.09189 15.47043,-15.84962 28.12806,-30.3288 28.12806,-32.17595 0,-1.84715 -12.65763,-15.94184 -28.12806,-31.32154 -20.87918,-20.75674 -28.12806,-30.33571 -28.12806,-37.16966 0,-10.51355 9.68707,-20.84446 19.54535,-20.84446 3.7032,0 20.40244,13.65329 37.43441,30.60633 l 30.74878,30.60633 31.27717,-30.60633 c 33.21639,-32.504 40.97825,-35.87473 53.58336,-23.26964 11.40392,11.40393 6.07336,22.74422 -25.8478,54.98877 l -28.63331,28.9234 30.6042,31.27498 c 16.83234,17.20123 30.60423,33.49998 30.60423,36.21941 0,9.7264 -10.80503,20.57312 -20.49403,20.57312 -7.30319,0 -16.518,-7.00714 -39.20353,-29.81112 l -29.65626,-29.8111 -30.46448,29.8111 c -24.2029,23.6838 -32.58104,29.81112 -40.76209,29.81112 -5.66365,0 -12.19621,-1.89866 -14.51678,-4.21921 z"
       id="path2259" />
  </g>
</svg>
