<?xml version="1.0" encoding="UTF-8" standalone="no"?>
<!-- Created with Inkscape (http://www.inkscape.org/) -->

<svg
   version="1.1"
   id="svg4120"
   width="512"
   height="512"
   viewBox="0 0 512 512"
   sodipodi:docname="del.noborder.svg"
   inkscape:export-filename="/home/jini/ws/images/aa/icons/del.noborder.png"
   inkscape:export-xdpi="96.080002"
   inkscape:export-ydpi="96.080002"
   inkscape:version="1.1.2 (0a00cf5339, 2022-02-04)"
   xmlns:inkscape="http://www.inkscape.org/namespaces/inkscape"
   xmlns:sodipodi="http://sodipodi.sourceforge.net/DTD/sodipodi-0.dtd"
   xmlns="http://www.w3.org/2000/svg"
   xmlns:svg="http://www.w3.org/2000/svg">
  <defs
     id="defs4124" />
  <sodipodi:namedview
     id="namedview4122"
     pagecolor="#ffffff"
     bordercolor="#666666"
     borderopacity="1.0"
     inkscape:pageshadow="2"
     inkscape:pageopacity="0.0"
     inkscape:pagecheckerboard="0"
     showgrid="false"
     inkscape:zoom="1.7539563"
     inkscape:cx="321.55876"
     inkscape:cy="256.27777"
     inkscape:window-width="2560"
     inkscape:window-height="1570"
     inkscape:window-x="0"
     inkscape:window-y="0"
     inkscape:window-maximized="1"
     inkscape:current-layer="g4126" />
  <g
     inkscape:groupmode="layer"
     inkscape:label="Image"
     id="g4126">
    <path
       style="fill:#333333;fill-opacity:1;stroke-width:2.97289"
       d="M 39.208054,501.87999 C 17.783907,492.14721 2.1055149,468.10878 2.1055149,444.9936 c 0,-23.58802 3.7185502,-28.3973 85.6438711,-110.76517 L 166.87171,254.67863 87.713305,175.17858 C 5.6831207,92.79434 2.1055149,88.167427 2.1055149,64.463129 2.1055149,32.491282 32.783429,1.9739103 64.848073,2.0489239 88.209553,2.1037072 93.054178,5.8619901 175.21861,87.673269 l 79.50004,79.158391 79.54982,-78.897545 C 416.43745,6.438813 422.18686,1.9946778 445.37855,2.0489239 c 33.0092,0.077341 61.9553,29.2377121 61.9553,62.4142051 0,25.521287 -7.29787,35.171555 -87.66483,115.923711 l -75.61153,75.97391 76.06472,75.73584 c 97.5414,97.11964 106.4377,116.8739 70.09034,155.63564 -37.69126,40.19497 -60.35398,30.49624 -158.07593,-67.65006 l -75.73585,-76.06471 -75.97389,75.61153 c -91.622613,91.18558 -104.737438,98.82415 -141.218826,82.251 z"
       id="path5577"
       inkscape:export-filename="/home/jini/ws/images/aa/icons/del.noborder.png"
       inkscape:export-xdpi="96.080002"
       inkscape:export-ydpi="96.080002"
       sodipodi:nodetypes="ssscsssscsssscssscss" />
  </g>
</svg>
