<?xml version="1.0" encoding="UTF-8" standalone="no"?>
<svg
   xmlns:dc="http://purl.org/dc/elements/1.1/"
   xmlns:cc="http://creativecommons.org/ns#"
   xmlns:rdf="http://www.w3.org/1999/02/22-rdf-syntax-ns#"
   xmlns:svg="http://www.w3.org/2000/svg"
   xmlns="http://www.w3.org/2000/svg"
   xmlns:sodipodi="http://sodipodi.sourceforge.net/DTD/sodipodi-0.dtd"
   xmlns:inkscape="http://www.inkscape.org/namespaces/inkscape"
   version="1.1"
   id="svg1654"
   width="512"
   height="512"
   viewBox="0 0 512.00001 511.99999"
   sodipodi:docname="discord.svg"
   inkscape:version="1.0.2 (e86c870879, 2021-01-15)">
  <metadata
     id="metadata1660">
    <rdf:RDF>
      <cc:Work
         rdf:about="">
        <dc:format>image/svg+xml</dc:format>
        <dc:type
           rdf:resource="http://purl.org/dc/dcmitype/StillImage" />
        <dc:title></dc:title>
      </cc:Work>
    </rdf:RDF>
  </metadata>
  <defs
     id="defs1658" />
  <sodipodi:namedview
     pagecolor="#ffffff"
     bordercolor="#666666"
     borderopacity="1"
     objecttolerance="10"
     gridtolerance="10"
     guidetolerance="10"
     inkscape:pageopacity="0"
     inkscape:pageshadow="2"
     inkscape:window-width="1916"
     inkscape:window-height="1044"
     id="namedview1656"
     showgrid="false"
     inkscape:zoom="1"
     inkscape:cx="305.72339"
     inkscape:cy="192.03513"
     inkscape:window-x="3840"
     inkscape:window-y="16"
     inkscape:window-maximized="0"
     inkscape:current-layer="g1662" />
  <g
     inkscape:groupmode="layer"
     inkscape:label="Image"
     id="g1662">
    <g
       id="g2233"
       transform="matrix(3.0205157,0,0,3.0205157,-0.52645174,61.256692)">
      <path
         style="fill:#d0d0d0;fill-opacity:1;stroke-width:0.274286"
         d="m 78.92572,113.64692 c 0.188572,-0.0761 0.497143,-0.0761 0.685715,0 0.188571,0.0761 0.03428,0.13835 -0.342858,0.13835 -0.377142,0 -0.531428,-0.0623 -0.342857,-0.13835 z m 11.520001,0 c 0.188572,-0.0761 0.497143,-0.0761 0.685714,0 0.188572,0.0761 0.03429,0.13835 -0.342857,0.13835 -0.377143,0 -0.531428,-0.0623 -0.342857,-0.13835 z m 78.831889,-10.78977 c 0,-0.37715 0.0622,-0.53143 0.13834,-0.34286 0.0761,0.18857 0.0761,0.49714 0,0.68571 -0.0761,0.18857 -0.13834,0.0343 -0.13834,-0.34285 z M 0.317594,101.48572 c 0,-0.37715 0.0622557,-0.53143 0.13834588,-0.34286 0.0760902,0.18857 0.0760902,0.49714 0,0.68571 -0.0760902,0.18858 -0.13834588,0.0343 -0.13834588,-0.34285 z M 169.58329,97.371432 c 0,-0.678857 0.0535,-0.956572 0.11887,-0.617143 0.0654,0.339429 0.0654,0.894857 0,1.234286 -0.0654,0.339428 -0.11887,0.06171 -0.11887,-0.617143 z M 0.10471245,92.297146 c 5.4227e-4,-1.810286 0.0449335,-2.515165 0.0986469,-1.566394 0.0537134,0.948768 0.0532697,2.429911 -9.8606e-4,3.291429 -0.0542558,0.861515 -0.0982032,0.08525 -0.0976608,-1.725035 z m 169.47857755,-4.8 c 0,-0.678857 0.0535,-0.956572 0.11887,-0.617143 0.0654,0.339428 0.0654,0.894857 0,1.234286 -0.0654,0.339428 -0.11887,0.06171 -0.11887,-0.617143 z M 0.317594,83.38286 c 0,-0.377143 0.0622557,-0.531429 0.13834588,-0.342857 0.0760902,0.188571 0.0760902,0.497143 0,0.685714 C 0.37984965,83.914289 0.317594,83.760003 0.317594,83.38286 Z M 71.937567,70.765717 c 0,-0.678858 0.05349,-0.956572 0.118867,-0.617143 0.06538,0.339428 0.06538,0.894857 0,1.234286 -0.06538,0.339428 -0.118867,0.06171 -0.118867,-0.617143 z m -30.456787,0 c 0,-0.528 0.05645,-0.744 0.125439,-0.48 0.06899,0.264 0.06899,0.696 0,0.96 -0.06899,0.264 -0.125439,0.048 -0.125439,-0.48 z M 56.160004,53.840716 c 0.339429,-0.06538 0.894857,-0.06538 1.234286,0 0.339429,0.06538 0.06171,0.118867 -0.617143,0.118867 -0.678857,0 -0.956571,-0.05349 -0.617143,-0.118867 z m 56.228576,0 c 0.33943,-0.06538 0.89486,-0.06538 1.23429,0 0.33942,0.06538 0.0617,0.118867 -0.61715,0.118867 -0.67885,0 -0.95657,-0.05349 -0.61714,-0.118867 z M 92.365721,8.0469175 c 0.188572,-0.07609 0.497143,-0.07609 0.685715,0 0.188571,0.07609 0.03429,0.1383459 -0.342858,0.1383459 -0.377142,0 -0.531428,-0.062256 -0.342857,-0.1383459 z"
         id="path2239" />
      <path
         style="fill:#b9b9b9;fill-opacity:1;stroke-width:0.274286"
         d="m 80.160006,113.6395 c 0.264,-0.069 0.696,-0.069 0.96,0 0.264,0.069 0.048,0.12544 -0.48,0.12544 -0.528,0 -0.744,-0.0564 -0.48,-0.12544 z m 9.056649,-0.001 c 0.266872,-0.0695 0.637158,-0.065 0.822857,0.0102 0.1857,0.0751 -0.03265,0.13203 -0.48522,0.12644 -0.452571,-0.006 -0.604509,-0.0671 -0.337637,-0.1366 z M 169.27761,101.76 c 0,-0.37714 0.0622,-0.53143 0.13834,-0.34285 0.0761,0.18857 0.0761,0.49714 0,0.68571 -0.0761,0.18857 -0.13834,0.0343 -0.13834,-0.34286 z M 0.32775738,100.25143 c 0.00559,-0.45257 0.0670625,-0.604507 0.13660582,-0.337636 0.0695433,0.266876 0.0649698,0.637156 -0.0101634,0.822856 -0.0751332,0.1857 -0.13203229,-0.0327 -0.12644242,-0.48522 z M 169.61758,92.434289 c 0,-2.187429 0.0426,-3.082286 0.0947,-1.988572 0.0521,1.093715 0.0521,2.883429 0,3.977143 -0.0521,1.093715 -0.0947,0.198857 -0.0947,-1.988571 z M 0.32775738,84.617146 c 0.00559,-0.452572 0.0670625,-0.60451 0.13660582,-0.337638 0.0695433,0.266872 0.0649698,0.637158 -0.0101634,0.822857 -0.0751332,0.1857 -0.13203229,-0.03265 -0.12644242,-0.485219 z M 102.70275,83.314288 l -0.8056,-0.891428 0.89143,0.805602 c 0.83094,0.750934 1.0175,0.977255 0.8056,0.977255 -0.0472,0 -0.44835,-0.401143 -0.89143,-0.891429 z m 66.57486,-0.205714 c 0,-0.377143 0.0622,-0.531428 0.13834,-0.342857 0.0761,0.188571 0.0761,0.497143 0,0.685714 -0.0761,0.188572 -0.13834,0.03429 -0.13834,-0.342857 z M 41.460453,72.137145 c 0,-0.377143 0.06226,-0.531428 0.138347,-0.342857 0.07609,0.188572 0.07609,0.497143 0,0.685714 -0.07609,0.188572 -0.138347,0.03429 -0.138347,-0.342857 z M 66.925719,58.285716 c -0.666248,-0.678857 -1.149646,-1.234286 -1.074218,-1.234286 0.07543,0 0.682256,0.555429 1.348504,1.234286 0.666248,0.678857 1.149647,1.234286 1.074218,1.234286 -0.07543,0 -0.682255,-0.555429 -1.348504,-1.234286 z m -20.57143,0 c 0.511757,-0.528 0.992182,-0.96 1.067611,-0.96 0.07543,0 -0.281568,0.432 -0.793325,0.96 -0.511757,0.528 -0.992182,0.96 -1.067611,0.96 -0.07543,0 0.281568,-0.432 0.793325,-0.96 z M 95.382864,8.3212032 c 0.188572,-0.07609 0.497143,-0.07609 0.685715,0 0.188571,0.07609 0.03428,0.1383459 -0.342857,0.1383459 -0.377143,0 -0.531429,-0.062256 -0.342858,-0.1383459 z m -17.68621,-0.282709 c 0.266872,-0.069543 0.637158,-0.06497 0.822857,0.010162 0.1857,0.075133 -0.03265,0.1320323 -0.485219,0.1264424 -0.452572,-0.00559 -0.60451,-0.067062 -0.337638,-0.1366058 z m 13.440001,0 c 0.266872,-0.069543 0.637158,-0.06497 0.822857,0.010162 0.1857,0.075133 -0.03265,0.1320323 -0.485219,0.1264424 -0.452572,-0.00559 -0.60451,-0.067062 -0.337638,-0.1366058 z"
         id="path2237" />
      <path
         style="fill:#a3a3a3;fill-opacity:1;stroke-width:0.274286"
         d="M 39.22286,127.16184 C 27.291215,123.07985 16.809728,117.88929 6.4457148,110.93021 3.8811432,109.20819 1.580158,107.63998 1.3324145,107.44529 0.20927551,106.5627 -0.03980803,87.178922 0.95271779,77.897145 3.3966692,55.042112 10.974886,34.271581 24.480365,13.412086 l 1.527557,-2.359343 2.561754,-1.1226179 C 37.700799,5.928664 48.62176,2.5805509 58.678641,0.69941738 c 1.851111,-0.34624903 2.360492,-0.36342519 2.551154,-0.0860242 0.131026,0.19063376 1.170457,2.22889262 2.309845,4.52946412 1.139391,2.3005715 2.156498,4.1828573 2.260241,4.1828573 0.103743,0 1.602925,-0.1822505 3.331518,-0.4050015 9.878938,-1.2730259 21.492065,-1.2628074 31.797191,0.027978 2.73624,0.3427326 3.44321,0.358792 3.53603,0.080325 0.12926,-0.3877759 4.15807,-8.56962642 4.28421,-8.70053551 0.15007,-0.15573686 8.50013,1.60603871 12.21118,2.57643001 4.98123,1.30253 11.35315,3.4015201 16.18286,5.3308355 7.01528,2.8023849 6.33074,2.3211849 8.90054,6.2566409 13.59723,20.823107 21.3584,43.425068 23.20885,67.588526 0.32053,4.185439 0.18972,20.730087 -0.18851,23.843487 -0.15492,1.2752 -0.17727,1.2993 -3.12329,3.36787 -7.41318,5.20521 -17.94196,11.00757 -26.18458,14.43021 -3.84133,1.59506 -11.43622,4.3479 -13.0814,4.74147 -0.68963,0.16498 -0.87959,-0.0474 -3.33884,-3.73308 -1.43418,-2.1494 -3.4783,-5.44623 -4.54248,-7.32629 l -1.93489,-3.41827 2.39373,-0.95134 c 3.04659,-1.2108 11.65015,-5.55687 11.7761,-5.94867 0.0524,-0.16311 -0.63797,-0.87268 -1.53424,-1.57683 l -1.62957,-1.28026 -2.28643,0.98564 c -6.46954,2.78893 -13.56223,5.04878 -20.11025,6.40747 -21.181263,4.39503 -42.64351,1.91893 -63.101658,-7.28003 -0.271904,-0.12227 -3.470309,2.1759 -3.631395,2.60929 -0.16354,0.43998 8.736012,4.89938 12.887782,6.45783 l 1.290909,0.48457 -0.710619,1.4073 c -1.850474,3.66466 -8.083069,13.36194 -8.565403,13.32688 -0.08961,-0.007 -2.07608,-0.66635 -4.414366,-1.46632 z M 60.306815,87.372993 c 2.598166,-0.691526 4.455059,-1.808486 6.618967,-3.981457 2.270949,-2.280459 3.448921,-4.253744 4.426081,-7.414391 0.901547,-2.916066 0.902669,-7.499682 0.0025,-10.422857 -1.641046,-5.329394 -5.071049,-9.114452 -9.910275,-10.936131 -2.516917,-0.947468 -6.484995,-0.984521 -9.102902,-0.085 -8.584699,2.949737 -13.105424,13.556536 -9.681496,22.71531 2.365997,6.328879 7.915705,10.502052 13.980261,10.512623 1.206857,0.0022 2.856922,-0.17254 3.666811,-0.388101 z m 56.872655,-0.146085 c 3.86626,-1.194163 7.18668,-4.131349 9.15176,-8.095477 3.57058,-7.202839 2.36774,-15.538994 -3.00906,-20.854053 -4.88155,-4.825503 -11.02269,-5.803571 -16.93441,-2.697054 -2.53104,1.330022 -5.3504,4.301082 -6.654622,7.012666 -4.727304,9.828469 -0.251523,21.530266 9.432582,24.66121 2.12055,0.685588 5.74569,0.673242 8.01375,-0.02729 z"
         id="path2235" />
    </g>
  </g>
</svg>
