<?xml version="1.0" encoding="UTF-8" standalone="no"?>
<svg
   xmlns:dc="http://purl.org/dc/elements/1.1/"
   xmlns:cc="http://creativecommons.org/ns#"
   xmlns:rdf="http://www.w3.org/1999/02/22-rdf-syntax-ns#"
   xmlns:svg="http://www.w3.org/2000/svg"
   xmlns="http://www.w3.org/2000/svg"
   xmlns:sodipodi="http://sodipodi.sourceforge.net/DTD/sodipodi-0.dtd"
   xmlns:inkscape="http://www.inkscape.org/namespaces/inkscape"
   version="1.1"
   id="svg4544"
   width="187.62155"
   height="513"
   viewBox="0 0 187.62155 513"
   sodipodi:docname="dropdown.item.svg"
   inkscape:version="1.0.2 (e86c870879, 2021-01-15)">
  <metadata
     id="metadata4550">
    <rdf:RDF>
      <cc:Work
         rdf:about="">
        <dc:format>image/svg+xml</dc:format>
        <dc:type
           rdf:resource="http://purl.org/dc/dcmitype/StillImage" />
        <dc:title></dc:title>
      </cc:Work>
    </rdf:RDF>
  </metadata>
  <defs
     id="defs4548" />
  <sodipodi:namedview
     pagecolor="#ffffff"
     bordercolor="#666666"
     borderopacity="1"
     objecttolerance="10"
     gridtolerance="10"
     guidetolerance="10"
     inkscape:pageopacity="0"
     inkscape:pageshadow="2"
     inkscape:window-width="1916"
     inkscape:window-height="1044"
     id="namedview4546"
     showgrid="false"
     inkscape:zoom="1"
     inkscape:cx="-21.08109"
     inkscape:cy="219.92787"
     inkscape:window-x="3840"
     inkscape:window-y="16"
     inkscape:window-maximized="0"
     inkscape:current-layer="g4552"
     inkscape:document-rotation="0" />
  <g
     inkscape:groupmode="layer"
     inkscape:label="Image"
     id="g4552"
     transform="translate(-162.18923,0.4999994)">
    <circle
       style="fill:#ffffff;fill-opacity:1;stroke:none;stroke-width:11.5"
       id="path5123"
       cx="256"
       cy="256"
       r="68.913643" />
    <path
       style="fill:#000000"
       d="m 235.01966,430.07096 v -82.42904 l -5.73287,-1.66659 c -14.01825,-4.07522 -28.6136,-12.75283 -39.11858,-23.25781 -38.08006,-38.08006 -37.17454,-99.095 2.01471,-135.75344 10.9105,-10.20591 26.21141,-18.96999 37.78193,-21.64079 l 5.05481,-1.16679 V 81.828252 -0.4999994 h 19.5 l 20.66663,0.009491 0.0126,81.9483644 -0.0206,81.711714 5.53799,1.76942 c 23.21452,7.41716 46.0336,23.91803 58.21666,46.73699 21.52298,40.31271 10.25351,91.37227 -26.26222,118.98853 -9.19961,6.95751 -20.84987,12.79982 -31.17218,15.63203 l -6.97888,1.91486 0.38874,82.1443 0.38874,82.1443 H 255.1584 235.01966 Z m 38.38258,-120.76283 c 8.84982,-2.88808 16.54629,-7.90824 23.46759,-15.30713 20.24585,-21.64287 20.24585,-54.35913 0,-76.002 -11.5439,-12.34047 -24.51441,-17.92654 -41.35017,-17.80848 -8.31611,0.0583 -11.26293,0.53371 -17.5,2.82317 -9.94068,3.64896 -16.28808,7.84491 -23.22885,15.35547 -20.03333,21.67793 -19.70423,54.32355 0.7664,76.0235 14.93806,15.83513 37.33254,21.6096 57.84503,14.91547 z"
       id="path5117"
       sodipodi:nodetypes="ccsssscccccccssssccccccssssssss" />
  </g>
</svg>
