<?xml version="1.0" encoding="UTF-8" standalone="no"?>
<svg
   xmlns:dc="http://purl.org/dc/elements/1.1/"
   xmlns:cc="http://creativecommons.org/ns#"
   xmlns:rdf="http://www.w3.org/1999/02/22-rdf-syntax-ns#"
   xmlns:svg="http://www.w3.org/2000/svg"
   xmlns="http://www.w3.org/2000/svg"
   xmlns:sodipodi="http://sodipodi.sourceforge.net/DTD/sodipodi-0.dtd"
   xmlns:inkscape="http://www.inkscape.org/namespaces/inkscape"
   version="1.1"
   id="svg925"
   width="512"
   height="512"
   viewBox="0 0 512.00001 512.00001"
   sodipodi:docname="edit.svg"
   inkscape:export-xdpi="96.080002"
   inkscape:export-ydpi="96.080002"
   inkscape:version="1.0.2 (e86c870879, 2021-01-15)">
  <metadata
     id="metadata931">
    <rdf:RDF>
      <cc:Work
         rdf:about="">
        <dc:format>image/svg+xml</dc:format>
        <dc:type
           rdf:resource="http://purl.org/dc/dcmitype/StillImage" />
        <dc:title></dc:title>
      </cc:Work>
    </rdf:RDF>
  </metadata>
  <defs
     id="defs929" />
  <sodipodi:namedview
     pagecolor="#ffffff"
     bordercolor="#666666"
     borderopacity="1"
     objecttolerance="10"
     gridtolerance="10"
     guidetolerance="10"
     inkscape:pageopacity="0"
     inkscape:pageshadow="2"
     inkscape:window-width="1916"
     inkscape:window-height="1044"
     id="namedview927"
     showgrid="false"
     inkscape:zoom="0.88384608"
     inkscape:cx="277.73961"
     inkscape:cy="274.34659"
     inkscape:window-x="3840"
     inkscape:window-y="16"
     inkscape:window-maximized="0"
     inkscape:current-layer="g933" />
  <g
     inkscape:groupmode="layer"
     inkscape:label="Image"
     id="g933">
    <path
       style="fill:#000000;stroke-width:3.80117"
       d="M 9.9255002,502.61074 C 7.4167249,500.10195 5.3343228,495.39802 5.2979151,492.15751 5.2599006,488.917 15.952333,455.047 29.055254,416.89081 52.878768,347.51594 52.878768,347.51594 173.07031,227.34995 l 120.19148,-120.16603 55.61282,56.45234 c 30.58702,31.04879 55.61279,57.33912 55.61279,58.42298 0,1.08382 -53.45403,55.35544 -118.78671,120.60343 C 166.914,461.29554 166.914,461.29554 99.675932,484.23384 30.446019,507.85161 17.763295,510.44852 9.9255002,502.61074 Z M 361.59814,150.68734 305.49983,94.495383 350.59437,49.956237 C 375.39639,25.459712 398.6088,5.4171059 402.17753,5.4171059 c 13.08904,0 28.22112,11.6805211 66.15707,51.0669941 51.72045,53.69796 51.81785,50.9255 -3.76844,107.2654 -23.40413,23.72142 -43.5242,43.12984 -44.71135,43.12984 -1.18714,0 -27.40263,-25.28641 -58.25667,-56.192 z"
       id="path939"
       sodipodi:nodetypes="scsscsssssscssssss" />
  </g>
</svg>
