<?xml version="1.0" encoding="UTF-8" standalone="no"?>
<svg
   xmlns:dc="http://purl.org/dc/elements/1.1/"
   xmlns:cc="http://creativecommons.org/ns#"
   xmlns:rdf="http://www.w3.org/1999/02/22-rdf-syntax-ns#"
   xmlns:svg="http://www.w3.org/2000/svg"
   xmlns="http://www.w3.org/2000/svg"
   xmlns:sodipodi="http://sodipodi.sourceforge.net/DTD/sodipodi-0.dtd"
   xmlns:inkscape="http://www.inkscape.org/namespaces/inkscape"
   version="1.1"
   id="svg2331"
   width="512"
   height="512"
   viewBox="0 0 512 512"
   sodipodi:docname="github.svg"
   inkscape:version="1.0.2 (e86c870879, 2021-01-15)">
  <metadata
     id="metadata2337">
    <rdf:RDF>
      <cc:Work
         rdf:about="">
        <dc:format>image/svg+xml</dc:format>
        <dc:type
           rdf:resource="http://purl.org/dc/dcmitype/StillImage" />
        <dc:title></dc:title>
      </cc:Work>
    </rdf:RDF>
  </metadata>
  <defs
     id="defs2335" />
  <sodipodi:namedview
     pagecolor="#ffffff"
     bordercolor="#666666"
     borderopacity="1"
     objecttolerance="10"
     gridtolerance="10"
     guidetolerance="10"
     inkscape:pageopacity="0"
     inkscape:pageshadow="2"
     inkscape:window-width="1916"
     inkscape:window-height="1044"
     id="namedview2333"
     showgrid="false"
     inkscape:zoom="1"
     inkscape:cx="221.21462"
     inkscape:cy="377.92533"
     inkscape:window-x="3840"
     inkscape:window-y="16"
     inkscape:window-maximized="0"
     inkscape:current-layer="g2339" />
  <g
     inkscape:groupmode="layer"
     inkscape:label="Image"
     id="g2339">
    <path
       style="fill:#000000;stroke-width:1.22091"
       d="M 166.11503,504.33399 C 150.71076,498.61036 129.92987,487.8857 115.28743,478.10277 53.62657,436.90579 14.056245,374.71432 2.1631768,300.30881 -0.73570257,282.17279 -0.71486146,242.09071 2.2027346,224.16798 12.683076,159.78823 43.602547,104.14387 90.893812,64.554667 159.77833,6.8889792 250.74619,-10.911608 335.14119,16.760344 454.28902,55.827274 527.92243,176.1423 509.06211,300.94251 c -12.66206,83.78575 -66.11123,156.9118 -141.45256,193.52717 -16.34888,7.94546 -31.09229,13.56221 -35.59934,13.56221 -4.81276,0 -8.90929,-2.53864 -10.91413,-6.76351 -1.59441,-3.35997 -1.89304,-10.73723 -1.90826,-47.14149 -0.0141,-33.79958 -0.41014,-44.82115 -1.82619,-50.82732 -2.06221,-8.74694 -5.45985,-15.97812 -10.54296,-22.43865 l -3.5158,-4.46852 5.20442,-0.79133 c 41.41033,-6.29641 67.76757,-18.75593 85.72108,-40.5218 16.2774,-19.73384 25.06824,-49.04345 25.08574,-83.63842 0.0139,-27.57199 -7.30543,-50.10008 -21.80879,-67.12459 l -4.11264,-4.82755 2.0342,-7.24989 c 4.46489,-15.91273 3.33447,-39.47522 -2.67261,-55.708 -2.04622,-5.52943 -2.48925,-5.93336 -6.90716,-6.29765 -11.62217,-0.95834 -35.14412,7.65322 -55.42923,20.29304 l -10.15408,6.32711 -14.87477,-2.99391 c -35.53095,-7.15148 -70.35432,-6.70528 -105.24728,1.34856 l -8.57086,1.9783 -8.93284,-5.77862 c -18.77361,-12.14459 -42.96648,-21.39569 -55.95261,-21.39569 -5.99026,0 -6.27764,0.40991 -9.75241,13.91104 -4.04884,15.73167 -4.07048,38.50264 -0.0476,50.09878 l 1.66353,4.79521 -5.85104,7.73031 c -16.405837,21.67509 -22.74986,48.06832 -19.509196,81.16462 6.363021,64.98425 40.065076,98.29677 109.063676,107.80306 l 5.74902,0.79207 -4.09606,5.7321 c -4.89814,6.85461 -7.64876,13.15868 -9.69272,22.21454 l -1.51563,6.71505 -7.86418,2.66989 c -15.86123,5.38489 -30.32422,4.91552 -43.27085,-1.40429 -7.87204,-3.84267 -14.95757,-10.718 -22.40796,-21.74324 -10.78527,-15.96026 -23.667793,-25.44299 -37.058331,-27.27836 -6.132694,-0.8406 -13.810609,1.11803 -14.833655,3.78401 -0.963684,2.51134 3.399994,7.39052 11.574201,12.94151 9.217702,6.25963 16.965747,16.01986 23.179355,29.19911 2.69105,5.7078 5.54748,11.75136 6.34765,13.43012 2.43588,5.11063 14.64955,16.62313 21.1072,19.89546 11.68413,5.9208 19.4268,7.52399 35.89948,7.43329 8.39383,-0.0461 17.56943,-0.65545 20.39023,-1.35387 2.82079,-0.69843 5.43051,-0.96808 5.79938,-0.59922 0.36884,0.36884 0.67063,11.62168 0.67063,25.00626 0,26.56622 -0.89661,30.98835 -6.83134,33.69239 -4.62287,2.10632 -8.72527,1.61536 -19.28384,-2.30781 z"
       id="path2904" />
  </g>
</svg>
