<?xml version="1.0" encoding="UTF-8" standalone="no"?>
<svg
   xmlns:dc="http://purl.org/dc/elements/1.1/"
   xmlns:cc="http://creativecommons.org/ns#"
   xmlns:rdf="http://www.w3.org/1999/02/22-rdf-syntax-ns#"
   xmlns:svg="http://www.w3.org/2000/svg"
   xmlns="http://www.w3.org/2000/svg"
   xmlns:sodipodi="http://sodipodi.sourceforge.net/DTD/sodipodi-0.dtd"
   xmlns:inkscape="http://www.inkscape.org/namespaces/inkscape"
   version="1.1"
   id="svg114"
   width="512"
   height="512"
   viewBox="0 0 512 511.99999"
   sodipodi:docname="hamburger.svg"
   inkscape:export-xdpi="95.980202"
   inkscape:export-ydpi="95.980202"
   inkscape:version="1.0.2 (e86c870879, 2021-01-15)">
  <metadata
     id="metadata120">
    <rdf:RDF>
      <cc:Work
         rdf:about="">
        <dc:format>image/svg+xml</dc:format>
        <dc:type
           rdf:resource="http://purl.org/dc/dcmitype/StillImage" />
        <dc:title></dc:title>
      </cc:Work>
    </rdf:RDF>
  </metadata>
  <defs
     id="defs118" />
  <sodipodi:namedview
     pagecolor="#ffffff"
     bordercolor="#666666"
     borderopacity="1"
     objecttolerance="10"
     gridtolerance="10"
     guidetolerance="10"
     inkscape:pageopacity="0"
     inkscape:pageshadow="2"
     inkscape:window-width="1916"
     inkscape:window-height="1044"
     id="namedview116"
     showgrid="false"
     showguides="false"
     inkscape:zoom="0.83300781"
     inkscape:cx="232.91191"
     inkscape:cy="194.60422"
     inkscape:window-x="3840"
     inkscape:window-y="16"
     inkscape:window-maximized="0"
     inkscape:current-layer="g122" />
  <g
     inkscape:groupmode="layer"
     inkscape:label="Image"
     id="g122"
     transform="translate(972.41053,-199.52015)">
    <path
       style="fill:#000000;stroke-width:0.58815"
       d="m -942.68663,648.45916 c -1.68561,-0.29767 -4.83031,-1.32565 -6.98825,-2.28441 -20.76054,-9.22383 -28.97418,-35.18518 -17.58405,-55.57909 2.43475,-4.3594 8.47682,-10.74861 12.59935,-13.32326 1.76877,-1.10464 5.1037,-2.73763 7.41096,-3.62886 l 4.19502,-1.62042 224.93506,-0.15573 c 250.8002,-0.17362 228.90305,-0.55876 237.95943,4.18532 8.36296,4.38085 14.87861,12.36384 18.2661,22.37971 1.32141,3.90702 1.49808,5.33765 1.48147,11.99618 -0.0163,6.55812 -0.21524,8.14811 -1.50044,11.99637 -4.01089,12.0097 -12.17773,20.56329 -23.86834,24.99865 l -3.71767,1.41046 -225.06196,0.0831 c -130.16121,0.0481 -226.35425,-0.14506 -228.12668,-0.45807 z m 0,-154.83154 c -1.68561,-0.29768 -4.83031,-1.32566 -6.98825,-2.28442 -20.76054,-9.22382 -28.97418,-35.18519 -17.58405,-55.5791 2.43475,-4.35939 8.47682,-10.74861 12.59935,-13.32324 1.76877,-1.10465 5.1037,-2.73764 7.41096,-3.62887 l 4.19502,-1.62042 224.93506,-0.15572 c 250.8002,-0.17364 228.90305,-0.55877 237.95943,4.18532 8.36296,4.38083 14.87861,12.36383 18.2661,22.37971 1.32141,3.90701 1.49808,5.33764 1.48147,11.99617 -0.0163,6.55812 -0.21524,8.14812 -1.50044,11.99638 -4.01089,12.00969 -12.17773,20.56328 -23.86834,24.99864 l -3.71767,1.41047 -225.06196,0.0831 c -130.16121,0.0481 -226.35425,-0.14507 -228.12668,-0.45807 z m 0,-154.83155 c -1.68561,-0.29767 -4.83031,-1.32566 -6.98825,-2.28441 -20.76054,-9.22383 -28.97418,-35.18519 -17.58405,-55.5791 2.43475,-4.35939 8.47682,-10.74861 12.59935,-13.32325 1.76877,-1.10465 5.1037,-2.73764 7.41096,-3.62887 l 4.19502,-1.62041 224.93506,-0.15573 c 250.8002,-0.17363 228.90305,-0.55877 237.95943,4.18532 8.36296,4.38084 14.87861,12.36384 18.2661,22.37971 1.32141,3.90702 1.49808,5.33764 1.48147,11.99618 -0.0163,6.55811 -0.21524,8.14811 -1.50044,11.99637 -4.01089,12.0097 -12.17773,20.56328 -23.86834,24.99864 l -3.71767,1.41047 -225.06196,0.0831 c -130.16121,0.0481 -226.35425,-0.14506 -228.12668,-0.45807 z"
       id="path126"
       inkscape:export-xdpi="95.980202"
       inkscape:export-ydpi="95.980202"/>
  </g>
</svg>
