<?xml version="1.0" encoding="UTF-8" standalone="no"?>
<!-- Created with Inkscape (http://www.inkscape.org/) -->

<svg
   version="1.1"
   id="svg341"
   width="512"
   height="512"
   viewBox="0 0 512 512"
   sodipodi:docname="info.svg"
   inkscape:export-xdpi="96"
   inkscape:export-ydpi="96"
   inkscape:version="1.1.2 (0a00cf5339, 2022-02-04)"
   xmlns:inkscape="http://www.inkscape.org/namespaces/inkscape"
   xmlns:sodipodi="http://sodipodi.sourceforge.net/DTD/sodipodi-0.dtd"
   xmlns="http://www.w3.org/2000/svg"
   xmlns:svg="http://www.w3.org/2000/svg">
  <defs
     id="defs345" />
  <sodipodi:namedview
     id="namedview343"
     pagecolor="#ffffff"
     bordercolor="#666666"
     borderopacity="1.0"
     inkscape:pageshadow="2"
     inkscape:pageopacity="0.0"
     inkscape:pagecheckerboard="0"
     showgrid="false"
     fit-margin-top="0"
     fit-margin-left="0"
     fit-margin-right="0"
     fit-margin-bottom="0"
     inkscape:zoom="0.79375"
     inkscape:cx="254.48819"
     inkscape:cy="255.11811"
     inkscape:window-width="2560"
     inkscape:window-height="1570"
     inkscape:window-x="0"
     inkscape:window-y="0"
     inkscape:window-maximized="1"
     inkscape:current-layer="g347" />
  <g
     inkscape:groupmode="layer"
     inkscape:label="Image"
     id="g347"
     transform="translate(-145.02376,-145.02376)">
    <path
       style="fill:#000000;stroke-width:1.33333"
       d="m 385.65459,656.02008 c -41.01107,-3.99938 -67.80374,-11.30992 -99.33334,-27.10365 -41.14389,-20.60969 -78.7578,-55.04161 -102.49598,-93.82521 -25.49632,-41.65607 -37.81359,-85.39558 -37.81359,-134.27887 0,-67.59129 24.71063,-128.75964 71.56172,-177.14296 22.24848,-22.97611 45.73384,-39.84973 74.36867,-53.43195 36.14241,-17.14326 68.57758,-24.40133 109.04585,-24.40133 57.55205,0 108.45149,17.14759 155.33333,52.33048 14.63546,10.98331 41.24984,38.20641 51.68795,52.87016 23.69121,33.28207 39.51915,72.06091 45.78291,112.16927 2.97732,19.0645 2.99434,56.05732 0.0345,74.93966 -8.96023,57.16152 -34.16971,105.78143 -75.70117,146 -46.96812,45.48335 -103.73276,69.53887 -169.39872,71.78716 -9.75634,0.33404 -20.13879,0.3733 -23.07212,0.0872 z m 36.85873,-32.61661 c 60.76573,-6.20019 116.18592,-36.297 153.36061,-83.28488 70.53536,-89.15493 63.70106,-215.83845 -15.98884,-296.37605 -75.68425,-76.48935 -195.9935,-88.29168 -284.10496,-27.87067 -75.53373,51.79603 -112.15208,142.41735 -93.46434,231.30104 23.27005,110.67835 128.1925,187.65891 240.19753,176.23056 z m -72.85873,-64.46113 c -2.2,-0.97111 -5.1375,-3.04155 -6.52776,-4.60098 -7.09008,-7.95278 -1.9558,-36.96408 13.85125,-78.26666 18.77499,-49.05754 25.29049,-76.99318 19.14657,-82.09218 -4.48222,-3.71992 -13.59364,-1.80806 -29.4168,6.17258 l -14.94674,7.53858 -5.59478,-3.33632 -5.59478,-3.33633 11.20818,-7.20671 c 16.16554,-10.39422 27.8896,-17.06642 44.54152,-25.34874 40.95664,-20.37098 67.38826,-24.95515 78.09902,-13.54514 6.14065,6.54155 4.73924,14.30318 -14.06396,77.89191 -13.5665,45.87923 -20.00059,71.96624 -18.86535,76.48944 2.43637,9.70728 18.04976,7.04959 40.00383,-6.80941 l 5.27218,-3.32819 5.90374,2.86825 c 4.96586,2.4126 5.6419,3.18375 4.25554,4.8542 -2.4145,2.90932 -37.63118,25.98111 -49.27166,32.27976 -31.75299,17.1815 -64.86099,25.57563 -78,19.77594 z m 78.17565,-227.51758 c -14.9302,-3.06034 -28.44203,-14.16629 -33.57535,-27.59702 -3.56446,-9.32602 -3.89938,-23.6055 -0.75424,-32.15811 4.70926,-12.80589 16.41127,-24.09056 29.1971,-28.15579 2.77373,-0.88189 9.20417,-1.60345 14.28985,-1.60345 18.46815,0 35.87357,12.30628 42.0842,29.75507 2.67471,7.51461 2.68528,22.87341 0.0208,30.28961 -7.40819,20.61999 -30.28267,33.77005 -51.26241,29.46969 z"
       id="path351"
       sodipodi:nodetypes="sssssssssssssssssssssssssscccsssssscsssssssssscss" />
  </g>
</svg>
