<?xml version="1.0" encoding="UTF-8" standalone="no"?>
<svg
   xmlns:dc="http://purl.org/dc/elements/1.1/"
   xmlns:cc="http://creativecommons.org/ns#"
   xmlns:rdf="http://www.w3.org/1999/02/22-rdf-syntax-ns#"
   xmlns:svg="http://www.w3.org/2000/svg"
   xmlns="http://www.w3.org/2000/svg"
   xmlns:sodipodi="http://sodipodi.sourceforge.net/DTD/sodipodi-0.dtd"
   xmlns:inkscape="http://www.inkscape.org/namespaces/inkscape"
   version="1.1"
   id="svg1611"
   width="511"
   height="511"
   viewBox="0 0 511 511"
   sodipodi:docname="instagram.svg"
   inkscape:version="1.0.2 (e86c870879, 2021-01-15)">
  <metadata
     id="metadata1617">
    <rdf:RDF>
      <cc:Work
         rdf:about="">
        <dc:format>image/svg+xml</dc:format>
        <dc:type
           rdf:resource="http://purl.org/dc/dcmitype/StillImage" />
        <dc:title></dc:title>
      </cc:Work>
    </rdf:RDF>
  </metadata>
  <defs
     id="defs1615" />
  <sodipodi:namedview
     pagecolor="#ffffff"
     bordercolor="#666666"
     borderopacity="1"
     objecttolerance="10"
     gridtolerance="10"
     guidetolerance="10"
     inkscape:pageopacity="0"
     inkscape:pageshadow="2"
     inkscape:window-width="1916"
     inkscape:window-height="1044"
     id="namedview1613"
     showgrid="false"
     inkscape:zoom="0.86986301"
     inkscape:cx="183.83498"
     inkscape:cy="389.49067"
     inkscape:window-x="3840"
     inkscape:window-y="16"
     inkscape:window-maximized="0"
     inkscape:current-layer="g1619" />
  <g
     inkscape:groupmode="layer"
     inkscape:label="Image"
     id="g1619">
    <path
       style="fill:#000000"
       d="M 133.0904,510.04814 C 115.37853,507.94912 98.174774,502.51727 81.2582,493.68282 66.86009,486.1636 56.22705,478.33905 44.51659,466.64569 23.21706,445.37728 9.62341,420.11793 2.80999,389.14765 0.5,378.64765 0.5,378.64765 0.5,255.64765 c 0,-123 0,-123 2.30999,-133.5 C 16.38218,60.455519 59.69311,16.980819 121.5,3.0088189 c 10,-2.26059003 10,-2.26059003 126.5,-2.62739003 125.5296,-0.39523 129.75694,-0.26171 149.48931,4.72177003 C 423.93564,11.782299 447.14878,25.147669 467,45.125169 c 20.89268,21.02558 34.44662,46.37051 41.19001,77.022481 2.30999,10.5 2.30999,10.5 2.30999,133.5 0,123 0,123 -2.30999,133.5 -3.28969,14.95325 -7.40523,26.62642 -13.78437,39.09755 -7.65077,14.95716 -16.12581,26.61871 -27.9076,38.40049 -21.12461,21.12462 -46.16953,34.66936 -76.99804,41.64193 -10,2.26173 -10,2.26173 -129.5,2.45017 -65.725,0.10365 -122.83432,-0.2067 -126.9096,-0.68965 z M 374.5,487.04346 c 28.48069,-3.47642 53.58531,-15.31085 73.78866,-34.78433 19.0705,-18.38154 31.11895,-39.97258 36.89222,-66.11148 2.31912,-10.5 2.31912,-10.5 2.31912,-130.5 0,-120 0,-120 -2.31912,-130.5 C 479.40761,99.008749 467.35916,77.417709 448.28866,59.036169 427.77145,39.260179 402.4998,27.489639 373.4282,24.169129 366.40546,23.366999 329.99186,23.138489 249,23.388289 c -114.5,0.35314 -114.5,0.35314 -124.5,2.62628 -12.1303,2.75739 -27.563189,8.67456 -36.94021,14.16336 C 57.84505,57.571329 35.61468,86.559789 27.52,118.47 c -4.51459,17.79701 -4.65324,22.45223 -4.27936,143.67765 0.35314,114.5 0.35314,114.5 2.61621,124.44295 5.53061,24.29912 16.26848,44.40822 33.07955,61.94894 20.48373,21.37279 46.95473,34.66963 76.5636,38.4592 10.55928,1.35146 227.96121,1.39213 239,0.0447 z M 234.09673,381.53586 c -25.56137,-4.28361 -49.54474,-16.82996 -68.59822,-35.88559 -24.55043,-24.55321 -37.49047,-55.61811 -37.49047,-90.00262 0,-34.38451 12.94004,-65.44941 37.49047,-90.00262 24.50498,-24.50775 55.67017,-37.48934 90.00149,-37.48934 34.38496,0 65.4522,12.94118 90.00149,37.49047 24.54929,24.54929 37.49047,55.61653 37.49047,90.00149 0,70.90817 -57.55565,127.97209 -128.49196,127.3942 -6.6,-0.0538 -15.78147,-0.73147 -20.40327,-1.50599 z M 270.6364,359.0654 c 20.64807,-2.87189 40.62514,-12.61029 56.24396,-27.41775 9.34042,-8.85521 15.06317,-16.28827 20.70346,-26.89091 18.28943,-34.38056 16.25413,-74.57008 -5.44959,-107.60909 -1.98716,-3.025 -7.41617,-9.46003 -12.06447,-14.30008 -40.80361,-42.48679 -108.61015,-42.27719 -149.60841,0.46247 -8.85639,9.23257 -13.1645,15.22263 -18.22301,25.33761 -26.09999,52.18944 -5.19487,114.43403 47.27769,140.76836 18.21415,9.14112 40.02155,12.58396 61.12037,9.64939 z M 385.5,137.26881 c -8.42021,-3.86259 -13.45608,-11.76708 -13.45608,-21.12116 0,-12.92494 10.35413,-23.023481 23.5721,-22.990231 4.56906,0.0115 12.96459,3.72446 16.07191,7.107881 3.24915,3.53786 6.26518,10.85788 6.29011,15.26633 0.0511,9.03558 -5.59359,18.17401 -13.42223,21.72989 -5.26557,2.39169 -13.8508,2.39498 -19.05581,0.007 z"
       id="path2186" />
  </g>
</svg>
