<?xml version="1.0" encoding="UTF-8" standalone="no"?>
<svg
   xmlns:dc="http://purl.org/dc/elements/1.1/"
   xmlns:cc="http://creativecommons.org/ns#"
   xmlns:rdf="http://www.w3.org/1999/02/22-rdf-syntax-ns#"
   xmlns:svg="http://www.w3.org/2000/svg"
   xmlns="http://www.w3.org/2000/svg"
   xmlns:sodipodi="http://sodipodi.sourceforge.net/DTD/sodipodi-0.dtd"
   xmlns:inkscape="http://www.inkscape.org/namespaces/inkscape"
   version="1.1"
   id="svg4968"
   width="512"
   height="512"
   viewBox="0 0 512 512"
   sodipodi:docname="linkedin.svg"
   inkscape:version="1.0.2 (e86c870879, 2021-01-15)">
  <metadata
     id="metadata4974">
    <rdf:RDF>
      <cc:Work
         rdf:about="">
        <dc:format>image/svg+xml</dc:format>
        <dc:type
           rdf:resource="http://purl.org/dc/dcmitype/StillImage" />
        <dc:title></dc:title>
      </cc:Work>
    </rdf:RDF>
  </metadata>
  <defs
     id="defs4972" />
  <sodipodi:namedview
     pagecolor="#ffffff"
     bordercolor="#666666"
     borderopacity="1"
     objecttolerance="10"
     gridtolerance="10"
     guidetolerance="10"
     inkscape:pageopacity="0"
     inkscape:pageshadow="2"
     inkscape:window-width="1916"
     inkscape:window-height="1044"
     id="namedview4970"
     showgrid="false"
     inkscape:zoom="0.6138847"
     inkscape:cx="55.211634"
     inkscape:cy="344.22518"
     inkscape:window-x="3840"
     inkscape:window-y="16"
     inkscape:window-maximized="0"
     inkscape:current-layer="g4976" />
  <g
     inkscape:groupmode="layer"
     inkscape:label="Image"
     id="g4976">
    <path
       style="fill:#000000"
       d="M 39.5,510.90561 C 21.91429,508.12722 8.33398,496.43014 2.37311,478.92722 0.5649,473.61778 0.5,465.89148 0.5,255.92722 0.5,38.427223 0.5,38.427223 2.77596,31.927223 7.54672,18.302253 18.37997,7.373583 31.66012,2.788663 38.5,0.42722299 38.5,0.42722299 256,0.42722299 c 217.5,0 217.5,0 224.25136,2.33198001 13.42407,4.6368 24.2867,15.52266 28.94753,29.00944 2.30111,6.65858 2.30111,6.65858 2.30111,224.158577 0,217.5 0,217.5 -2.36144,224.33988 -4.48074,12.97841 -15.17146,23.75887 -28.63856,28.87896 -6,2.28115 -6,2.28115 -221,2.41535 -118.25,0.074 -217.25,-0.2213 -220,-0.6558 z m 113.17839,-57.54947 c 1.55188,-1.1391 3.60841,-3.6141 4.57006,-5.5 1.63634,-3.20907 1.74854,-11.26917 1.75,-125.71104 0.002,-132.56741 0.27722,-125.93193 -5.44885,-131.21788 -2.70816,-2.5 -2.70816,-2.5 -36.10459,-2.78824 -37.01824,-0.3195 -37.63448,-0.22909 -41.48549,6.08679 -1.90838,3.12984 -1.95213,5.98361 -1.95578,127.58342 -0.004,122.76869 0.0223,124.42407 2.00249,127.62811 3.93958,6.37437 4.86025,6.51386 41.17216,6.23809 31.27017,-0.23748 32.79998,-0.33742 35.5,-2.31925 z m 122.00779,0.62085 c 6.04011,-3.68292 5.76712,-0.32777 6.35043,-78.04977 0.53027,-70.65572 0.56357,-71.59447 2.82053,-79.5 3.57507,-12.52248 7.77448,-20.19099 15.10961,-27.59145 9.07022,-9.15102 14.69294,-11.31236 29.53325,-11.3524 10.2814,-0.0277 11.43451,0.17532 17.65125,3.10834 8.58948,4.05246 14.21214,9.7638 18.38932,18.67938 6.77372,14.45754 6.81826,15.03619 7.41882,96.38794 0.54061,73.23181 0.54061,73.23181 3.80869,76.5 3.26808,3.26819 3.26808,3.26819 37.76997,3.55563 39.50006,0.32909 40.1942,0.21418 43.56684,-7.21158 1.74126,-3.83384 1.85196,-7.99492 1.86421,-70.07586 0.0167,-84.68956 -1.05692,-102.88958 -7.52129,-127.5 -3.14148,-11.95986 -11.78326,-29.645 -18.36813,-37.5898 -16.46543,-19.86593 -40.3301,-29.40216 -73.57968,-29.40216 -34.40198,0 -57.57603,9.70075 -74.58838,31.22299 -3.74906,4.74291 -3.74906,4.74291 -4.08034,-7.8234 C 280.5,194.76854 280.5,194.76854 276.76469,191.34788 c -3.73532,-3.42066 -3.73532,-3.42066 -37.5,-3.40592 -36.91552,0.0161 -37.0324,0.0329 -40.98467,5.89771 C 196,197.22299 196,197.22299 196.00155,321.3251 c 0.001,116.14746 0.11363,124.32646 1.75,127.60212 3.3793,6.76459 4.75078,6.99716 41.24845,6.99471 30.41857,-0.002 32.70406,-0.12661 35.68618,-1.94494 z M 127.5,164.4163 c 10.80411,-2.27842 18.96123,-6.77675 27.0304,-14.90618 7.92667,-7.98587 12.69155,-16.18041 14.92982,-25.67597 4.54723,-19.2911 -1.26728,-38.879217 -15.5366,-52.340167 C 131.9,50.718013 99.0216,50.905623 78,71.927223 66.87676,83.050463 61.62397,95.814073 61.744,111.42722 c 0.17667,22.98096 13.72271,42.5227 35.02046,50.52112 11.11178,4.17305 19.46831,4.84405 30.73554,2.46796 z"
       id="path5541" />
  </g>
</svg>
