<?xml version="1.0" encoding="UTF-8" standalone="no"?>
<svg
   xmlns:dc="http://purl.org/dc/elements/1.1/"
   xmlns:cc="http://creativecommons.org/ns#"
   xmlns:rdf="http://www.w3.org/1999/02/22-rdf-syntax-ns#"
   xmlns:svg="http://www.w3.org/2000/svg"
   xmlns="http://www.w3.org/2000/svg"
   xmlns:sodipodi="http://sodipodi.sourceforge.net/DTD/sodipodi-0.dtd"
   xmlns:inkscape="http://www.inkscape.org/namespaces/inkscape"
   version="1.1"
   id="svg2996"
   width="512"
   height="512"
   viewBox="0 0 512 512"
   sodipodi:docname="mail.svg"
   inkscape:version="1.0.2 (e86c870879, 2021-01-15)">
  <metadata
     id="metadata3002">
    <rdf:RDF>
      <cc:Work
         rdf:about="">
        <dc:format>image/svg+xml</dc:format>
        <dc:type
           rdf:resource="http://purl.org/dc/dcmitype/StillImage" />
        <dc:title></dc:title>
      </cc:Work>
    </rdf:RDF>
  </metadata>
  <defs
     id="defs3000" />
  <sodipodi:namedview
     pagecolor="#ffffff"
     bordercolor="#666666"
     borderopacity="1"
     objecttolerance="10"
     gridtolerance="10"
     guidetolerance="10"
     inkscape:pageopacity="0"
     inkscape:pageshadow="2"
     inkscape:window-width="1916"
     inkscape:window-height="1044"
     id="namedview2998"
     showgrid="false"
     inkscape:zoom="0.6138847"
     inkscape:cx="-98.659957"
     inkscape:cy="298.49131"
     inkscape:window-x="3840"
     inkscape:window-y="16"
     inkscape:window-maximized="0"
     inkscape:current-layer="g3004" />
  <g
     inkscape:groupmode="layer"
     inkscape:label="Image"
     id="g3004">
    <path
       style="fill:#000000;stroke-width:2"
       d="m 30.000001,433.49253 c -9.70645,-3.07656 -24.5503095,-18.48584 -27.5553595,-28.60496 -3.50908,-11.8164 -3.50908,-285.71952 0,-297.53592 3.21447,-10.824329 17.9630705,-25.572919 28.7874005,-28.787389 11.90477,-3.53533 437.631138,-3.53533 449.535918,0 10.82432,3.21447 25.57292,17.96306 28.7874,28.787389 3.50908,11.8164 3.50908,285.71952 0,297.53592 -3.21448,10.82432 -17.96308,25.57292 -28.7874,28.7874 -11.21738,3.3312 -440.230379,3.15756 -450.767959,-0.1824 z m 366.543839,-91.82132 -64.4484,-64.4484 -25.54772,25.24226 c -22.57448,22.30458 -26.81196,25.61542 -36.41072,28.44842 -13.43566,3.96542 -14.85186,3.9661 -28.16176,0.014 -9.41956,-2.7973 -13.93188,-6.31606 -36.4415,-28.41762 L 179.843,277.28437 115.42538,341.70199 51.007751,406.11961 H 256 460.99224 Z M 94.496121,191.62349 30.000001,127.12736 v 128.99225 128.99224 l 64.49612,-64.49612 64.496129,-64.49612 z M 482,255.62349 V 127.12736 l -64.4922,64.4922 -64.4922,64.49221 63.98048,64.00392 c 35.18926,35.20216 64.21076,64.00392 64.4922,64.00392 0.28144,0 0.51172,-57.82326 0.51172,-128.49612 z M 362.99746,204.08585 460.99492,106.11961 H 256.0052 51.015461 l 96.992269,97.16184 c 53.34575,53.439 98.79227,97.96602 100.99227,98.9489 10.77634,4.81456 12.42812,3.39248 113.99746,-98.1445 z"
       id="path3569" />
  </g>
</svg>
