<?xml version="1.0" encoding="UTF-8" standalone="no"?>
<svg
   xmlns:dc="http://purl.org/dc/elements/1.1/"
   xmlns:cc="http://creativecommons.org/ns#"
   xmlns:rdf="http://www.w3.org/1999/02/22-rdf-syntax-ns#"
   xmlns:svg="http://www.w3.org/2000/svg"
   xmlns="http://www.w3.org/2000/svg"
   xmlns:sodipodi="http://sodipodi.sourceforge.net/DTD/sodipodi-0.dtd"
   xmlns:inkscape="http://www.inkscape.org/namespaces/inkscape"
   version="1.1"
   id="svg1051"
   width="1024"
   height="1024"
   viewBox="0 0 1024 1024"
   sodipodi:docname="newtab.svg"
   inkscape:version="1.0.2 (e86c870879, 2021-01-15)">
  <metadata
     id="metadata1057">
    <rdf:RDF>
      <cc:Work
         rdf:about="">
        <dc:format>image/svg+xml</dc:format>
        <dc:type
           rdf:resource="http://purl.org/dc/dcmitype/StillImage" />
        <dc:title></dc:title>
      </cc:Work>
    </rdf:RDF>
  </metadata>
  <defs
     id="defs1055" />
  <sodipodi:namedview
     pagecolor="#ffffff"
     bordercolor="#666666"
     borderopacity="1"
     objecttolerance="10"
     gridtolerance="10"
     guidetolerance="10"
     inkscape:pageopacity="0"
     inkscape:pageshadow="2"
     inkscape:window-width="1916"
     inkscape:window-height="1044"
     id="namedview1053"
     showgrid="false"
     inkscape:zoom="0.41671877"
     inkscape:cx="275.2618"
     inkscape:cy="836.78065"
     inkscape:window-x="3840"
     inkscape:window-y="16"
     inkscape:window-maximized="0"
     inkscape:current-layer="g1059" />
  <g
     inkscape:groupmode="layer"
     inkscape:label="Image"
     id="g1059">
    <path
       style="fill:#000000;stroke-width:6.33837"
       d="M 49.688761,1007.4888 C 37.811087,1001.1189 22.881148,986.18897 16.511119,974.31135 5.6122492,953.98918 4.9292252,926.72369 4.9292252,512.00006 4.9292252,97.27639 5.6122492,70.010887 16.511119,49.688811 40.074699,5.7519889 45.131874,4.9292639 291.6422,4.9292639 H 512.00001 V 46.043319 87.157383 L 301.24871,88.827426 90.497431,90.497469 V 512.00006 933.50263 H 512.00001 933.50258 l 1.67005,-210.75129 1.67006,-210.75128 h 41.11405 41.11406 v 220.35775 c 0,246.51037 -0.8227,251.56759 -44.7595,275.13099 -20.32217,10.899 -47.58766,11.5819 -462.31129,11.5819 -414.723689,0 -441.989182,-0.6829 -462.311249,-11.5819 z M 542.02394,481.97613 511.95688,451.90913 694.166,269.61869 876.37516,87.328274 H 779.75579 683.1364 V 46.128764 4.9292639 h 154.18558 c 152.97298,0 154.29392,0.1153739 167.96722,14.6698831 13.3657,14.227106 13.7816,19.296804 13.7816,167.967193 V 340.86367 H 977.87132 936.67179 V 244.24428 147.6249 L 754.38139,329.83403 572.09094,512.04318 Z"
       id="path1624" />
  </g>
</svg>

