<?xml version="1.0" encoding="UTF-8" standalone="no"?>
<!-- Created with Inkscape (http://www.inkscape.org/) -->

<svg
   version="1.1"
   id="svg409"
   width="512"
   height="512"
   viewBox="0 0 512 512"
   sodipodi:docname="posts.svg"
   inkscape:version="1.1.2 (0a00cf5339, 2022-02-04)"
   xmlns:inkscape="http://www.inkscape.org/namespaces/inkscape"
   xmlns:sodipodi="http://sodipodi.sourceforge.net/DTD/sodipodi-0.dtd"
   xmlns="http://www.w3.org/2000/svg"
   xmlns:svg="http://www.w3.org/2000/svg">
  <defs
     id="defs413" />
  <sodipodi:namedview
     id="namedview411"
     pagecolor="#ffffff"
     bordercolor="#666666"
     borderopacity="1.0"
     inkscape:pageshadow="2"
     inkscape:pageopacity="0.0"
     inkscape:pagecheckerboard="0"
     showgrid="false"
     inkscape:zoom="1.194183"
     inkscape:cx="574.45132"
     inkscape:cy="337.88791"
     inkscape:window-width="2560"
     inkscape:window-height="1570"
     inkscape:window-x="0"
     inkscape:window-y="0"
     inkscape:window-maximized="1"
     inkscape:current-layer="g415" />
  <g
     inkscape:groupmode="layer"
     inkscape:label="Image"
     id="g415">
    <path
       style="fill:#000000;stroke-width:1.63893"
       d="m 94.988353,479.30593 c -5.782778,-6.07953 -6.938255,-11.76324 -3.879605,-19.08361 4.783933,-11.44959 -6.527294,-10.82683 196.649862,-10.82683 h 182.64603 l 1.01716,-13.52116 c 3.01888,-40.1296 4.17657,-95.89794 4.18476,-201.58818 l 0.01,-117.59311 H 456.76888 437.9212 l -0.0254,104.48168 c -0.0302,124.29713 -1.84953,160.2603 -9.11283,180.1326 -4.7554,13.01071 11.63971,12.12369 -215.16594,11.64118 C 12.01446,412.51961 12.01446,412.51961 6.9902922,407.70593 2.9376978,403.82312 1.9661083,401.55434 1.9661083,395.97392 c 0,-6.06071 1.3465107,-8.61308 10.8621777,-20.58971 24.200302,-30.45907 38.228856,-58.52398 47.411821,-94.85004 8.546339,-33.80773 9.235639,-43.42201 10.45397,-145.81292 0.627463,-52.732513 1.707664,-97.123706 2.400472,-98.647106 3.734348,-8.211408 -3.84858,-7.883229 182.154401,-7.883229 204.74479,0 182.67209,-3.846467 182.67209,31.833036 v 22.251598 h 29.5821 c 31.27508,0 37.12766,1.16123 40.84324,8.103862 1.11787,2.088748 1.68751,48.315019 1.68751,136.939819 0,123.36869 -1.05336,173.11475 -4.80534,226.93816 -2.31346,33.18741 23.34332,29.5556 -208.79404,29.5556 -197.158376,0 -197.158376,0 -201.445435,-4.50706 z M 400.58172,364.17122 c 0.64692,-7.66199 1.65818,-78.64807 2.24725,-157.74685 L 403.89999,62.608409 H 254.55894 105.21787 v 76.036521 c 0,41.82008 -0.75879,83.67421 -1.68619,93.00918 -5.184572,52.18583 -18.507126,96.19816 -39.886077,131.76753 -4.177579,6.95045 -7.59558,13.28469 -7.59558,14.07612 0,0.81944 73.909697,1.25927 171.677747,1.02164 l 171.67774,-0.41729 z M 289.3794,335.04379 c -10.00822,-8.10696 -9.53565,-16.37292 1.82544,-31.92983 16.78584,-22.98512 21.08525,-36.03828 13.59761,-41.28283 -5.45347,-3.81975 -13.08109,-3.11803 -35.69174,3.28359 -36.8132,10.42268 -52.6136,9.25773 -68.53018,-5.05265 -10.95521,-9.84967 -14.12576,-18.12229 -13.01339,-33.95458 0.9938,-14.14454 3.55533,-22.03824 15.32809,-47.2356 4.86914,-10.42147 8.85299,-21.24633 8.85299,-24.05524 0,-6.63809 -5.10486,-10.64863 -19.34606,-15.1989 -18.03474,-5.76236 -20.03782,-6.79411 -22.52391,-11.60166 -6.39029,-12.35747 1.45535,-26.0734 14.91425,-26.0734 6.14478,0 32.24572,8.99344 39.63048,13.65524 8.63586,5.45158 17.69158,15.91155 20.10411,23.22161 1.23041,3.72814 1.74744,11.1306 1.30785,18.72432 -0.64952,11.2202 -1.89817,15.1383 -11.71606,36.76352 -6.04399,13.31267 -11.42721,27.40155 -11.96273,31.30861 -0.88407,6.44999 -0.55845,7.37582 3.53805,10.05996 4.29753,2.81586 5.10451,2.82536 16.99867,0.20029 6.86781,-1.51575 19.12461,-4.61145 27.2373,-6.87935 28.52948,-7.97541 48.08994,-4.654 62.98575,10.6951 17.058,17.5771 14.24449,43.68072 -8.20875,76.16049 -12.96882,18.76006 -16.75663,22.10333 -24.99262,22.05944 -3.99089,-0.0213 -8.29531,-1.21579 -10.33515,-2.86813 z"
       id="path1457"
       inkscape:export-filename="/home/jini/ws/images/aa/icons/posts.png"
       inkscape:export-xdpi="96"
       inkscape:export-ydpi="96" />
  </g>
</svg>
