<?xml version="1.0" encoding="UTF-8" standalone="no"?>
<svg
   xmlns:dc="http://purl.org/dc/elements/1.1/"
   xmlns:cc="http://creativecommons.org/ns#"
   xmlns:rdf="http://www.w3.org/1999/02/22-rdf-syntax-ns#"
   xmlns:svg="http://www.w3.org/2000/svg"
   xmlns="http://www.w3.org/2000/svg"
   xmlns:sodipodi="http://sodipodi.sourceforge.net/DTD/sodipodi-0.dtd"
   xmlns:inkscape="http://www.inkscape.org/namespaces/inkscape"
   version="1.1"
   id="svg901"
   width="512"
   height="512"
   viewBox="0 0 512 512"
   sodipodi:docname="remove.svg"
   inkscape:version="1.0.2 (e86c870879, 2021-01-15)">
  <metadata
     id="metadata907">
    <rdf:RDF>
      <cc:Work
         rdf:about="">
        <dc:format>image/svg+xml</dc:format>
        <dc:type
           rdf:resource="http://purl.org/dc/dcmitype/StillImage" />
        <dc:title></dc:title>
      </cc:Work>
    </rdf:RDF>
  </metadata>
  <defs
     id="defs905" />
  <sodipodi:namedview
     pagecolor="#ffffff"
     bordercolor="#666666"
     borderopacity="1"
     objecttolerance="10"
     gridtolerance="10"
     guidetolerance="10"
     inkscape:pageopacity="0"
     inkscape:pageshadow="2"
     inkscape:window-width="1916"
     inkscape:window-height="1044"
     id="namedview903"
     showgrid="false"
     inkscape:zoom="1.0964869"
     inkscape:cx="383.45922"
     inkscape:cy="320.31733"
     inkscape:window-x="3840"
     inkscape:window-y="16"
     inkscape:window-maximized="0"
     inkscape:current-layer="g909" />
  <g
     inkscape:groupmode="layer"
     inkscape:label="Image"
     id="g909">
    <path
       style="fill:#000000;stroke-width:3.38796"
       d="M 226.24236,508.94268 C 70.696722,490.57551 -31.414936,337.67374 10.603411,186.0454 22.377144,143.55846 41.81898,111.17625 76.019104,77.089344 110.90035,42.323566 132.94099,28.1765 175.18108,13.440912 199.8274,4.8429854 211.56715,2.8282341 244.372,1.5666933 294.03561,-0.34316545 325.40417,5.9518645 367.48571,26.273145 453.30914,67.717471 505.65039,146.49179 510.53312,241.56151 518.70488,400.67426 383.80702,527.54827 226.24236,508.94268 Z m 171.88896,-218.2571 c 7.43186,-7.43182 8.31591,-11.17375 8.31591,-35.1982 0,-21.41503 -1.31662,-28.50904 -6.47377,-34.8806 -6.47382,-7.99823 -6.47382,-7.99823 -136.36533,-8.98145 -71.44037,-0.54078 -133.21526,-0.1572 -137.27756,0.85207 -15.31524,3.8056 -18.02371,10.45135 -18.02371,44.22449 0,28.97046 0.6595,32.21345 7.52978,37.02557 6.50508,4.55633 25.65898,5.27404 140.75427,5.27404 133.22453,0 133.22453,0 141.54041,-8.31592 z"
       id="path919"
       sodipodi:nodetypes="sssssssssssscssss" />
  </g>
</svg>
