<?xml version="1.0" encoding="UTF-8" standalone="no"?>
<svg
   xmlns:dc="http://purl.org/dc/elements/1.1/"
   xmlns:cc="http://creativecommons.org/ns#"
   xmlns:rdf="http://www.w3.org/1999/02/22-rdf-syntax-ns#"
   xmlns:svg="http://www.w3.org/2000/svg"
   xmlns="http://www.w3.org/2000/svg"
   xmlns:sodipodi="http://sodipodi.sourceforge.net/DTD/sodipodi-0.dtd"
   xmlns:inkscape="http://www.inkscape.org/namespaces/inkscape"
   version="1.1"
   id="svg907"
   width="512"
   height="512"
   viewBox="0 0 512 512"
   sodipodi:docname="scheduler.svg"
   inkscape:version="1.0.2 (e86c870879, 2021-01-15)">
  <metadata
     id="metadata913">
    <rdf:RDF>
      <cc:Work
         rdf:about="">
        <dc:format>image/svg+xml</dc:format>
        <dc:type
           rdf:resource="http://purl.org/dc/dcmitype/StillImage" />
        <dc:title></dc:title>
      </cc:Work>
    </rdf:RDF>
  </metadata>
  <defs
     id="defs911" />
  <sodipodi:namedview
     pagecolor="#ffffff"
     bordercolor="#666666"
     borderopacity="1"
     objecttolerance="10"
     gridtolerance="10"
     guidetolerance="10"
     inkscape:pageopacity="0"
     inkscape:pageshadow="2"
     inkscape:window-width="1916"
     inkscape:window-height="1044"
     id="namedview909"
     showgrid="false"
     inkscape:zoom="1.0964869"
     inkscape:cx="241.39824"
     inkscape:cy="307.83278"
     inkscape:window-x="3840"
     inkscape:window-y="16"
     inkscape:window-maximized="0"
     inkscape:current-layer="g915" />
  <g
     inkscape:groupmode="layer"
     inkscape:label="Image"
     id="g915">
    <path
       style="fill:#000000;stroke-width:1.56748"
       d="m 378.0773,469.41477 c -25.14283,-3.34987 -50.51809,-15.92295 -67.53647,-33.46336 l -6.98817,-7.20252 H 163.52689 c -134.555753,0 -140.252936,-0.11647 -145.841377,-2.98242 C 10.665407,422.16634 5.6057607,416.95793 3.3531541,411.01266 2.2060148,407.985 1.681267,352.74519 1.681267,235.01241 c 0,-186.627604 -0.4462467,-177.222597 8.819972,-185.886434 7.338767,-6.86169 11.377259,-7.545267 44.576481,-7.545267 h 31.2476 31.34965 85.29292 85.29291 31.61941 31.24761 c 33.21143,0 37.27685,0.688957 44.52338,7.545267 9.18483,8.690217 8.87308,5.198238 8.87308,99.392124 v 86.71578 l 12.93174,2.65518 c 15.5543,3.19363 37.94228,13.85486 50.39349,23.99756 18.05666,14.70884 33.20171,38.39419 39.54279,61.84093 4.16562,15.40274 3.84313,44.18903 -0.6727,60.0492 -16.10652,56.56812 -71.25891,93.28345 -128.6423,85.63802 z m 38.05261,-26.52004 c 17.08515,-4.36965 29.72171,-11.59632 42.55122,-24.33448 18.19566,-18.06608 27.35224,-39.76146 27.35224,-64.80775 0,-16.89882 -2.237,-26.78801 -9.45114,-41.78106 -7.36116,-15.29854 -16.77862,-26.23769 -30.88649,-35.87717 -60.92235,-41.62639 -144.3076,1.51468 -145.088,75.06423 -0.18016,16.97999 2.13496,27.53346 9.41734,42.92879 6.89299,14.5721 24.78585,33.14531 39.16975,40.6591 20.83626,10.88432 44.82119,13.80412 66.93508,8.14834 z m -9.5903,-60.05067 -23.96008,-23.96011 v -28.98554 c 0,-32.9065 0.85029,-35.95303 10.03458,-35.95303 9.45141,0 10.34268,2.63874 10.34268,30.62 v 24.88697 l 21.16103,21.35593 c 22.62445,22.83283 24.54783,26.33911 18.02604,32.86089 -6.7115,6.7115 -9.9785,4.80062 -35.60425,-20.82511 z m -119.57652,20.74727 c 0,-0.90493 -1.06234,-3.69966 -2.36075,-6.21051 -4.2708,-8.25883 -8.5893,-30.12352 -8.60064,-43.5453 -0.016,-18.99298 3.7052,-34.76677 12.47699,-52.88804 15.90155,-32.85037 46.6627,-56.45775 82.73659,-63.49555 l 9.79677,-1.91127 v -39.77357 -39.77356 c 0,0 -118.34495,0.2657 -177.51742,0.39856 -59.17246,0.13286 -177.517384,0.39858 -177.517384,0.39858 0,0 -0.267748,80.24386 -0.40162,120.36579 -0.133874,40.12192 -0.401623,120.36578 -0.401623,120.36578 l 3.857216,3.85721 3.857195,3.8572 H 159.92577 c 87.65334,0 127.03732,-0.51008 127.03732,-1.64532 z M 74.098964,373.57351 c -2.600313,-2.60032 -2.600313,-39.09473 0,-41.69503 1.257027,-1.25703 8.212757,-1.88099 20.969087,-1.88099 15.836789,0 19.454529,0.44118 21.239389,2.59013 2.33085,2.80635 3.15174,34.94432 1.02486,40.12378 -0.99021,2.41142 -3.55826,2.74308 -21.2394,2.74308 -13.55344,0 -20.726407,-0.61345 -21.993936,-1.88097 z m 72.104206,0 c -2.60033,-2.60032 -2.60033,-39.09473 0,-41.69503 2.6003,-2.60033 39.09471,-2.60033 41.69503,0 1.2654,1.26539 1.88097,8.39229 1.88097,21.77704 0,16.69664 -0.39869,20.04907 -2.47943,20.84752 -4.75503,1.82467 -39.11964,1.0474 -41.09657,-0.92953 z m 72.10419,0 c -2.60032,-2.60032 -2.60032,-39.09473 0,-41.69503 2.60031,-2.60033 39.09472,-2.60033 41.69503,0 1.97694,1.97693 2.7542,36.34154 0.92953,41.09657 -0.79844,2.08074 -4.15089,2.47943 -20.84751,2.47943 -13.38475,0 -20.51165,-0.61557 -21.77705,-1.88097 z M 75.701725,302.47767 c -3.277436,-2.29561 -3.48374,-3.57661 -3.48374,-21.63126 0,-12.83648 0.622834,-19.81399 1.880979,-21.07214 1.2587,-1.2587 8.247367,-1.88098 21.12488,-1.88098 24.486746,0 24.407966,-0.0809 23.844326,24.46381 -0.51645,22.48829 -0.59019,22.56067 -22.989167,22.56067 -12.753057,0 -17.747386,-0.59807 -20.377278,-2.4401 z m 73.322905,1.29757 c -1.29319,-0.49226 -2.86945,-1.67096 -3.50284,-2.61932 -2.00382,-3.00037 -1.40621,-39.29405 0.68138,-41.38165 2.6003,-2.60031 39.09471,-2.60031 41.69503,0 1.26651,1.26651 1.88097,8.41733 1.88097,21.88962 0,18.17769 -0.27745,20.15709 -3.03192,21.63126 -3.13444,1.67749 -33.55981,2.06474 -37.72262,0.48009 z m 70.92858,-0.4738 c -3.40057,-1.36687 -3.52683,-2.13767 -3.52683,-21.53192 0,-13.55446 0.61343,-20.72771 1.88098,-21.99525 2.60031,-2.60031 39.09472,-2.60031 41.69503,0 1.26743,1.26742 1.88098,8.43819 1.88098,21.98355 v 20.10258 l -4.02074,1.52868 c -4.99783,1.90017 -33.12579,1.83515 -37.90942,-0.0876 z M 74.681169,230.35038 c -3.593608,-3.59361 -3.593608,-38.5045 0,-42.09811 3.700401,-3.70041 38.537041,-3.59303 41.626271,0.1284 1.55829,1.87714 2.15127,7.74481 2.15127,21.28683 0,23.63747 0.50308,23.14614 -23.699863,23.14614 -13.923188,0 -18.13068,-0.51618 -20.077678,-2.46318 z m 72.384111,0.77015 c -2.38841,-1.3911 -2.7431,-4.21534 -2.7431,-21.84195 0,-18.41062 0.2746,-20.39119 3.03192,-21.86685 4.34746,-2.3267 38.1746,-2.11116 40.5441,0.25834 1.26651,1.26651 1.88097,8.41732 1.88097,21.88962 0,18.17769 -0.27745,20.1571 -3.03192,21.63127 -3.89948,2.08693 -36.07606,2.02984 -39.68197,-0.0705 z m 72.10419,0 c -2.38841,-1.3911 -2.74309,-4.21534 -2.74309,-21.84195 0,-18.41062 0.2746,-20.39119 3.03192,-21.86685 1.66755,-0.89246 10.53101,-1.62264 19.69657,-1.62264 9.16557,0 18.02903,0.73018 19.69658,1.62264 2.75758,1.47581 3.03192,3.4565 3.03192,21.88961 0,18.4331 -0.27434,20.41379 -3.03192,21.88962 -3.89948,2.08693 -36.07607,2.02984 -39.68198,-0.0705 z m 72.1042,0 c -2.38551,-1.38943 -2.7431,-4.20304 -2.7431,-21.58359 0,-13.4546 0.61469,-20.60057 1.88098,-21.86687 2.36951,-2.3695 36.19665,-2.58504 40.54409,-0.25834 2.7576,1.47581 3.03192,3.4565 3.03192,21.88961 0,18.4331 -0.27432,20.41379 -3.03192,21.88962 -3.89946,2.08693 -36.07605,2.02984 -39.68197,-0.0705 z"
       id="path921"
       sodipodi:nodetypes="sscsssssscccccssscssssssssssssssscssscsssssssscccscscccsssssssssssssssssssssssssssssssssssssssscsssssssssssssssssssssssssssssssssss" />
  </g>
</svg>
