<?xml version="1.0" encoding="UTF-8" standalone="no"?>
<svg
   xmlns:dc="http://purl.org/dc/elements/1.1/"
   xmlns:cc="http://creativecommons.org/ns#"
   xmlns:rdf="http://www.w3.org/1999/02/22-rdf-syntax-ns#"
   xmlns:svg="http://www.w3.org/2000/svg"
   xmlns="http://www.w3.org/2000/svg"
   xmlns:sodipodi="http://sodipodi.sourceforge.net/DTD/sodipodi-0.dtd"
   xmlns:inkscape="http://www.inkscape.org/namespaces/inkscape"
   version="1.1"
   id="svg867"
   width="512"
   height="512"
   viewBox="0 0 512.00001 511.99999"
   sodipodi:docname="sign-out.svg"
   inkscape:version="1.0.2 (e86c870879, 2021-01-15)"
   inkscape:export-filename="/home/jini/images/icons/aa-icons/sign-out.png"
   inkscape:export-xdpi="96.214424"
   inkscape:export-ydpi="96.214424">
  <metadata
     id="metadata873">
    <rdf:RDF>
      <cc:Work
         rdf:about="">
        <dc:format>image/svg+xml</dc:format>
        <dc:type
           rdf:resource="http://purl.org/dc/dcmitype/StillImage" />
        <dc:title></dc:title>
      </cc:Work>
    </rdf:RDF>
  </metadata>
  <defs
     id="defs871" />
  <sodipodi:namedview
     pagecolor="#ffffff"
     bordercolor="#666666"
     borderopacity="1"
     objecttolerance="10"
     gridtolerance="10"
     guidetolerance="10"
     inkscape:pageopacity="0"
     inkscape:pageshadow="2"
     inkscape:window-width="1916"
     inkscape:window-height="1044"
     id="namedview869"
     showgrid="false"
     inkscape:zoom="0.83300781"
     inkscape:cx="256.31373"
     inkscape:cy="423.26013"
     inkscape:window-x="3840"
     inkscape:window-y="16"
     inkscape:window-maximized="0"
     inkscape:current-layer="g875"
     width="512px" />
  <g
     inkscape:groupmode="layer"
     inkscape:label="Image"
     id="g875"
     transform="translate(213.59254,-761.23865)">
    <path
       style="fill:#000000;stroke-width:0.499737"
       d="m -134.24105,1271.9146 c -6.25739,-0.7866 -12.26138,-1.926 -15.66042,-2.9718 -19.45636,-5.9861 -35.23226,-17.275 -46.78463,-33.4781 -8.47832,-11.8915 -13.70182,-25.4307 -15.50678,-40.1932 -0.71498,-5.8477 -0.77789,-23.9184 -0.62988,-180.905 0.15063,-159.75296 0.23405,-174.7969 0.99277,-179.03315 5.11984,-28.58632 22.54491,-52.0405 47.89907,-64.47222 7.42621,-3.64123 17.42636,-6.82326 24.94236,-7.93661 5.96581,-0.88371 12.60661,-0.92533 147.672395,-0.92533 154.325995,0 143.561855,-0.20745 149.076765,2.87319 7.5351,4.20913 12.10125,12.08049 12.07625,20.81764 -0.035,12.24459 -8.7387,21.9256 -21.16393,23.54046 -2.10674,0.2738 -59.883562,0.46959 -141.4882971,0.47947 l -137.9275129,0.0167 -4.68451,1.25501 c -7.57512,2.02941 -11.97283,4.61018 -17.82996,10.46337 -4.14032,4.13753 -5.42898,5.81116 -7.32865,9.51793 -1.26774,2.4737 -2.8237,6.29669 -3.4577,8.49554 l -1.15272,3.9979 -0.15974,169.4109 c -0.10522,111.5952 0.0129,171.287 0.34597,174.9081 1.00591,10.9345 3.95033,17.1862 11.76814,24.9869 4.08939,4.0804 5.83362,5.4234 9.506,7.3195 2.57284,1.3284 6.3534,2.772 8.83395,3.3732 l 4.33631,1.0511 137.8389713,0.022 c 75.8114297,0.012 139.4664187,0.2106 141.4555287,0.4412 6.78345,0.7863 13.89637,5.2245 17.58474,10.9723 2.52509,3.935 3.65894,8.4902 3.4247,13.7585 -0.24722,5.5599 -1.52941,9.1128 -4.84943,13.4379 -2.94539,3.8369 -7.32848,6.8809 -11.91301,8.2735 l -3.52108,1.0695 -140.0987582,-0.063 c -77.2470628,-0.035 -141.6681118,-0.2605 -143.5969118,-0.503 z m 293.09596,-127.367 c -16.27566,-2.6499 -25.06647,-19.5244 -17.91177,-34.3828 1.56107,-3.2419 4.12338,-5.9524 16.4283,-17.3784 39.82238,-36.9779 51.42118,-47.7201 53.08136,-49.1612 1.03071,-0.8948 1.87401,-1.8284 1.87401,-2.0747 0,-0.2627 -43.66279,-0.4516 -105.56952,-0.4567 -115.1844978,-0.01 -109.2149699,0.1381 -115.1752627,-2.8471 -5.5144773,-2.7619 -10.3051293,-8.728 -11.9522483,-14.8849 -0.87643,-3.2761 -0.861078,-9.3425 0.03228,-12.7632 1.96903,-7.5395 8.289403,-13.90514 16.2193259,-16.33566 2.6129419,-0.80088 10.2226878,-0.87049 109.7151651,-1.00322 58.79911,-0.0785 106.98056,-0.21574 107.06989,-0.30504 0.0893,-0.0894 -1.80225,-1.94223 -4.20351,-4.11754 -5.01169,-4.54006 -17.60827,-16.20463 -23.12193,-21.4111 -2.06142,-1.94652 -6.44662,-6.02868 -9.74488,-9.07143 -27.39809,-25.27542 -31.67543,-29.39525 -33.53439,-32.29978 -3.50191,-5.47152 -4.5958,-13.02275 -2.77197,-19.13519 2.34483,-7.85847 7.58583,-13.36832 15.31739,-16.10314 5.81031,-2.05522 11.50271,-1.77711 17.08374,0.83456 4.1928,1.96202 5.5888,3.09628 17.89787,14.54156 5.49711,5.11137 18.31538,17.02006 28.48503,26.46375 10.16966,9.44368 21.30131,19.79539 24.737,23.00386 3.4357,3.20846 9.84483,9.17068 14.24252,13.24948 35.12709,32.57959 36.14895,33.58329 37.88424,37.21119 2.91102,6.0859 3.49996,11.4534 1.87876,17.1225 -1.59291,5.57 -3.49281,8.2582 -10.42017,14.7437 -5.26771,4.9317 -26.84519,25.0166 -40.09522,37.3217 -1.79098,1.6633 -14.25699,13.2563 -27.70226,25.7622 -39.534,36.772 -40.41422,37.5818 -42.50281,39.1044 -4.67247,3.4061 -11.9067,5.2407 -17.24094,4.3722 z"
       id="path879"
       inkscape:export-xdpi="96.214424"
       inkscape:export-ydpi="96.214424" />
  </g>
</svg>
