<?xml version="1.0" encoding="UTF-8" standalone="no"?>
<svg
   xmlns:dc="http://purl.org/dc/elements/1.1/"
   xmlns:cc="http://creativecommons.org/ns#"
   xmlns:rdf="http://www.w3.org/1999/02/22-rdf-syntax-ns#"
   xmlns:svg="http://www.w3.org/2000/svg"
   xmlns="http://www.w3.org/2000/svg"
   xmlns:sodipodi="http://sodipodi.sourceforge.net/DTD/sodipodi-0.dtd"
   xmlns:inkscape="http://www.inkscape.org/namespaces/inkscape"
   version="1.1"
   id="svg878"
   width="512"
   height="512"
   viewBox="0 0 512 512"
   sodipodi:docname="tiktok.svg"
   inkscape:version="1.0.2 (e86c870879, 2021-01-15)">
  <metadata
     id="metadata884">
    <rdf:RDF>
      <cc:Work
         rdf:about="">
        <dc:format>image/svg+xml</dc:format>
        <dc:type
           rdf:resource="http://purl.org/dc/dcmitype/StillImage" />
        <dc:title></dc:title>
      </cc:Work>
    </rdf:RDF>
  </metadata>
  <defs
     id="defs882" />
  <sodipodi:namedview
     pagecolor="#ffffff"
     bordercolor="#666666"
     borderopacity="1"
     objecttolerance="10"
     gridtolerance="10"
     guidetolerance="10"
     inkscape:pageopacity="0"
     inkscape:pageshadow="2"
     inkscape:window-width="1916"
     inkscape:window-height="1044"
     id="namedview880"
     showgrid="false"
     inkscape:zoom="0.83300781"
     inkscape:cx="167.07137"
     inkscape:cy="320.37298"
     inkscape:window-x="3840"
     inkscape:window-y="16"
     inkscape:window-maximized="0"
     inkscape:current-layer="g886" />
  <g
     inkscape:groupmode="layer"
     inkscape:label="Image"
     id="g886">
    <path
       style="fill:#000000"
       d="m 178.31761,509.0189 c -28.96894,-3.01352 -58.39167,-14.99532 -82.000001,-33.39281 -29.81402,-23.23346 -51.03391,-57.84391 -58.72406,-95.78119 -3.2548,-16.05667 -3.20676,-46.27677 0.0981,-61.72776 9.25176,-43.25379 33.5316,-79.27565 69.175771,-102.63002 26.9922,-17.68553 56.2253,-26.38464 88.5785,-26.35897 24.01476,0.019 21.37166,-5.60665 21.37166,45.48855 v 44.23788 l -5.75,-1.39992 c -7.98575,-1.94424 -24.20365,-1.89599 -32.75,0.0975 -3.85,0.89801 -11.22929,3.68503 -16.39842,6.19338 -7.82118,3.79528 -10.85885,6.01321 -18.10076,13.21615 -9.46235,9.41142 -14.57256,17.45243 -18.72591,29.46552 -3.45112,9.98202 -4.25528,27.16821 -1.79209,38.30008 5.61485,25.37514 23.44945,45.17662 48.64627,54.01121 9.80916,3.43932 28.88668,4.40288 39.18996,1.97939 7.47963,-1.75932 19.22464,-6.85972 25.29753,-10.98572 10.25934,-6.97033 21.26409,-20.52942 26.19572,-32.27607 6.09336,-14.51377 5.63653,0.5426 5.94968,-196.08891 L 268.86502,2.117136 h 43.33266 43.33266 l 0.56659,10.25 c 1.45448,26.31257 13.72386,53.60542 33.10451,73.63995 21.88101,22.619244 47.48989,34.688004 79.86613,37.638714 l 7.75001,0.70632 v 43.13992 43.13993 l -8.25001,-0.28641 c -18.82536,-0.65354 -38.53032,-4.20683 -57.07453,-10.29193 -13.86325,-4.54908 -36.59201,-15.41834 -47.67547,-22.79918 l -7.5,-4.99449 -0.53858,98.17859 c -0.47778,87.09547 -0.73089,99.13484 -2.2421,106.64946 -2.53713,12.61605 -6.32266,25.07687 -10.70924,35.25163 -27.92096,64.76325 -94.60366,103.95133 -164.51007,96.67926 z"
       id="path892" />
  </g>
</svg>
