<?xml version="1.0" encoding="UTF-8" standalone="no"?>
<!-- Created with Inkscape (http://www.inkscape.org/) -->

<svg
   version="1.1"
   id="svg569"
   width="512"
   height="512"
   viewBox="0 0 512 512"
   sodipodi:docname="trash.svg"
   inkscape:export-filename="/home/jini/ws/images/aa/icons/trash.png"
   inkscape:export-xdpi="96.080002"
   inkscape:export-ydpi="96.080002"
   inkscape:version="1.1.2 (0a00cf5339, 2022-02-04)"
   xmlns:inkscape="http://www.inkscape.org/namespaces/inkscape"
   xmlns:sodipodi="http://sodipodi.sourceforge.net/DTD/sodipodi-0.dtd"
   xmlns="http://www.w3.org/2000/svg"
   xmlns:svg="http://www.w3.org/2000/svg">
  <defs
     id="defs573" />
  <sodipodi:namedview
     id="namedview571"
     pagecolor="#ffffff"
     bordercolor="#666666"
     borderopacity="1.0"
     inkscape:pageshadow="2"
     inkscape:pageopacity="0.0"
     inkscape:pagecheckerboard="0"
     showgrid="false"
     inkscape:zoom="1.2402344"
     inkscape:cx="255.59685"
     inkscape:cy="256"
     inkscape:window-width="2560"
     inkscape:window-height="1570"
     inkscape:window-x="0"
     inkscape:window-y="0"
     inkscape:window-maximized="1"
     inkscape:current-layer="g575" />
  <g
     inkscape:groupmode="layer"
     inkscape:label="Image"
     id="g575">
    <path
       style="fill:#000000"
       d="m 103.00716,510.46676 c -4.270919,-1.85211 -7.707569,-4.96569 -9.691769,-8.78065 -1.0936,-2.10265 -6.22777,-54.9947 -19.13606,-197.13896 L 56.537869,110.28182 44.018949,109.86263 c -13.23237,-0.44308 -16.50144,-1.38654 -20.64397,-5.95789 -3.4807,-3.841 -4.66067,-6.960037 -4.66067,-12.319596 0,-7.986348 3.95644,-13.818573 11.51724,-16.977678 3.21555,-1.343542 12.34965,-1.547728 69.236352,-1.547728 h 65.532119 l 0.0119,-13.25 c 0.0134,-14.93306 1.2063,-20.829037 6.20814,-30.683447 6.61779,-13.038107 21.74271,-24.4678748 36.52272,-27.5998966 9.75858,-2.06793503 86.75596,-2.06793503 96.51454,0 14.78001,3.1320218 29.90493,14.5617896 36.52272,27.5998966 5.00184,9.85441 6.19476,15.750387 6.20814,30.683447 l 0.0118,13.25 h 65.53212 c 56.8867,0 66.0208,0.204186 69.23635,1.547728 7.55233,3.155563 11.51724,8.991539 11.51724,16.952272 0,5.500421 -1.78881,9.815722 -5.4407,13.125032 -4.51484,4.09132 -7.08828,4.76295 -19.86394,5.18423 l -12.51892,0.41282 -17.64146,194.26533 c -12.90829,142.14426 -18.04246,195.03631 -19.13606,197.13896 -2.02996,3.90295 -5.47722,6.9712 -9.91616,8.8259 -3.28874,1.37413 -20.44878,1.54334 -152.98635,1.50859 -131.07677,-0.0344 -149.70808,-0.22387 -152.77498,-1.55384 z m 282.99286,-37.1969 c 0,-2.24896 31.69872,-351.99348 32.48865,-358.46012 l 0.58024,-4.75001 H 256.02265 92.976391 l 0.53655,3.75001 c 0.61691,4.3116 32.487079,357.07148 32.487079,359.58821 0,1.54053 9.48592,1.66179 130,1.66179 124.24631,0 130,-0.0792 130,-1.78988 z M 176.65521,437.65385 c -4.72674,-1.75018 -8.03206,-4.76118 -10.16823,-9.26283 -2.3199,-4.88882 -20.87094,-263.35676 -19.30815,-269.01669 1.40641,-5.09362 7.34555,-10.84015 12.69112,-12.27957 9.31978,-2.50955 19.44176,3.19091 21.97836,12.3777 0.50883,1.84283 5.11291,62.0325 10.23129,133.75481 l 9.30615,130.40421 -2.31401,4.78011 c -4.07066,8.40886 -13.81596,12.42681 -22.41653,9.24226 z m 74.13617,0.46877 c -4.68374,-1.50057 -8.95629,-5.21502 -10.88593,-9.46395 -1.78486,-3.93016 -1.86241,-9.53134 -1.88347,-136.03321 -0.022,-131.9278 -0.0219,-131.93448 2.07409,-136.26413 6.15865,-12.72208 25.64925,-12.72208 31.8079,0 2.09595,4.32965 2.09605,4.33633 2.07409,136.26413 -0.0212,127.44777 -0.0866,132.07655 -1.9215,136.11814 -3.30892,7.28814 -13.61017,11.83151 -21.26518,9.37902 z m 72.46504,-0.18 c -4.4075,-1.27288 -9.91425,-7.00883 -11.35935,-11.83216 -0.99683,-3.32714 0.29937,-24.87015 8.018,-133.25972 5.06389,-71.11005 9.64142,-130.95804 10.17231,-132.99553 2.47245,-9.48909 12.54248,-15.31859 22.04271,-12.76045 5.34557,1.43942 11.28471,7.18595 12.69112,12.27957 1.59961,5.7933 -16.99417,264.14034 -19.37127,269.1497 -3.89336,8.20465 -13.00602,12.07192 -22.19352,9.41859 z M 310.97806,62.309738 c -0.0296,-14.466759 -3.12111,-21.087091 -11.29314,-24.183388 -3.86315,-1.463707 -83.50665,-1.463707 -87.3698,0 -8.17203,3.096297 -11.26358,9.716629 -11.29314,24.183388 l -0.022,10.75 h 55 55 l -0.022,-10.75 z"
       id="path579" />
  </g>
</svg>
