<?xml version="1.0" encoding="UTF-8" standalone="no"?>
<!-- Created with Inkscape (http://www.inkscape.org/) -->

<svg
   version="1.1"
   id="svg788"
   width="512"
   height="512"
   viewBox="0 0 512 512"
   sodipodi:docname="view.svg"
   inkscape:version="1.1.2 (0a00cf5339, 2022-02-04)"
   xmlns:inkscape="http://www.inkscape.org/namespaces/inkscape"
   xmlns:sodipodi="http://sodipodi.sourceforge.net/DTD/sodipodi-0.dtd"
   xmlns="http://www.w3.org/2000/svg"
   xmlns:svg="http://www.w3.org/2000/svg">
  <defs
     id="defs792" />
  <sodipodi:namedview
     id="namedview790"
     pagecolor="#ffffff"
     bordercolor="#666666"
     borderopacity="1.0"
     inkscape:pageshadow="2"
     inkscape:pageopacity="0.0"
     inkscape:pagecheckerboard="0"
     showgrid="false"
     inkscape:zoom="1.2402344"
     inkscape:cx="224.95748"
     inkscape:cy="256"
     inkscape:window-width="2560"
     inkscape:window-height="1570"
     inkscape:window-x="0"
     inkscape:window-y="0"
     inkscape:window-maximized="1"
     inkscape:current-layer="g794" />
  <g
     inkscape:groupmode="layer"
     inkscape:label="Image"
     id="g794">
    <path
       style="fill:#000000"
       d="m 56.413079,511.00796 c -2.475,-0.47979 -7.72723,-2.46264 -11.67161,-4.40632 -12.55664,-6.18757 -21.18118,-18.41328 -23.28117,-33.00221 -1.38353,-9.61162 -1.38353,-425.388378 0,-435.000002 2.6816,-18.629471 16.46809,-33.4529189 34.752,-37.3659009 8.41894,-1.80175688 238.168661,-1.59218788 242.508721,0.2212073 4.27666,1.7869043 152.53599,153.4438956 154.93333,158.4839356 1.5988,3.36125 1.72152,8.13423 1.5,58.33836 -0.23595,53.47169 -0.28674,54.73848 -2.30306,57.43821 -3.6593,4.89959 -7.04487,6.76881 -12.25983,6.76881 -5.20268,0 -10.10733,-2.64525 -12.43041,-6.70416 -0.92713,-1.61988 -1.37652,-14.13526 -1.74797,-48.68046 l -0.5,-46.5 -57,-0.5 c -63.3437,-0.55565 -59.60561,-0.1548 -71.0296,-7.61668 -6.30184,-4.1162 -8.43787,-6.39955 -12.84104,-13.72663 -6.41463,-10.67425 -6.62936,-13.09074 -6.62936,-74.604097 V 29.099428 l -107.75,0.02196 c -104.090791,0.02122 -107.893631,0.08716 -111.979341,1.94186 -2.44191,1.108499 -5.08175,3.318003 -6.24626,5.228038 -2.00617,3.290499 -2.01693,4.46281 -2.01693,219.808144 0,212.96687 0.0319,216.55225 1.95204,219.70145 1.07362,1.7608 3.43444,4.0108 5.24626,5 3.12437,1.70581 12.08556,1.82433 173.794231,2.29855 138.27013,0.40548 170.93544,0.74835 172.80351,1.81382 6.1497,3.50752 8.16849,13.93851 3.92656,20.2883 -1.24847,1.86883 -3.83597,4.18468 -5.75,5.14633 -3.27471,1.64526 -13.45296,1.74207 -172.48007,1.64043 -92.95,-0.0594 -171.025001,-0.50057 -173.500001,-0.98035 z M 380.61862,125.34943 C 366.85027,111.18693 344.75836,88.574428 331.52548,75.099428 l -24.05978,-24.5 0.22369,45.177935 c 0.21833,44.094717 0.27385,45.245587 2.31564,47.999997 1.15057,1.55214 3.57962,3.83457 5.39788,5.07207 3.30319,2.24813 3.34208,2.25 46.77751,2.25 h 43.47156 z m 91.29446,385.36172 c -1.65,-0.77796 -18.29752,-16.75885 -36.99448,-35.5131 -18.69697,-18.75424 -34.30848,-34.09862 -34.69225,-34.09862 -0.38377,0 -3.53625,1.77364 -7.00552,3.94142 -14.98994,9.36651 -29.77898,13.40042 -49.30775,13.44934 -17.81846,0.0446 -27.52198,-2.18836 -43,-9.89529 -26.98455,-13.43634 -45.07951,-36.9799 -51.04347,-66.41322 -2.54276,-12.54905 -1.634,-33.44836 1.98204,-45.58225 17.90864,-60.09366 86.50708,-86.8253 140.93675,-54.92063 15.57978,9.13229 31.74284,27.732 38.64578,44.4718 12.41372,30.10358 9.68444,60.12513 -8.20282,90.22939 l -2.24632,3.78055 34.1091,34.21945 c 18.76001,18.82069 34.64381,35.27243 35.29735,36.55941 1.85046,3.64401 1.47519,11.07552 -0.70687,13.99814 -4.58299,6.13843 -11.93318,8.52635 -17.77154,5.77361 z M 360.87856,427.57581 c 22.45272,-5.88359 40.84453,-24.4394 47.14127,-47.56163 2.30889,-8.47844 2.28777,-24.17897 -0.0443,-32.91475 -6.05729,-22.69066 -24.89536,-41.52635 -47.56245,-47.55649 -7.87737,-2.09562 -23.301,-2.36937 -31,-0.55021 -3.025,0.71476 -9.73515,3.32655 -14.91144,5.80396 -16.68587,7.98601 -29.65918,23.81042 -34.68101,42.30274 -2.66967,9.83076 -2.46612,25.47379 0.45544,35 6.13042,19.98923 20.65673,35.75614 39.78626,43.18416 3.99336,1.55063 9.64343,3.24573 12.5557,3.76689 6.86928,1.22928 20.69495,0.50784 28.26053,-1.47467 z M 91.017179,405.83298 c -9.59879,-5.50306 -9.94529,-18.2911 -0.66363,-24.49232 l 3.44047,-2.29863 45.793601,0.2787 45.7936,0.2787 3.67772,3.67846 c 3.11852,3.11914 3.7427,4.48762 4.10501,9 0.35167,4.37994 0.01,5.94083 -1.93173,8.82154 -4.76448,7.06894 -4.2326,6.99863 -52.81914,6.982 -43.173371,-0.0148 -43.529261,-0.0317 -47.395901,-2.24845 z m 0.46698,-95.4851 c -5.26517,-2.68478 -7.57108,-6.51375 -7.57108,-12.57178 0,-3.86206 0.60913,-6.03073 2.39865,-8.53981 4.35755,-6.10969 4.59062,-6.13702 52.319231,-6.13531 39.21091,0.001 43.60946,0.16602 46.76219,1.75 10.21954,5.13448 10.65447,19.23275 0.77907,25.25385 -3.12157,1.90325 -5.11636,1.98722 -47.25914,1.98931 -39.918441,0.002 -44.318081,-0.16001 -47.428921,-1.74626 z m -0.76675,-96.1931 c -9.89902,-6.07097 -9.3551,-19.94781 0.97795,-24.94995 4.28802,-2.0758 5.28377,-2.1054 70.821551,-2.1054 h 66.47239 l 4.3879,2.25 c 9.54841,4.89618 10.75033,16.08736 2.55072,23.75 l -2.6752,2.5 -69.66982,0.25761 c -67.680251,0.25026 -69.761081,0.20164 -72.865491,-1.70226 z m 3.04727,-94.13398 c -1.73162,-0.50924 -4.52192,-2.49026 -6.20067,-4.40225 -5.66391,-6.45084 -5.07868,-14.74134 1.44492,-20.469137 l 3.47374,-3.049985 h 69.560911 c 77.65632,0 73.08063,-0.417218 77.27524,7.046085 3.8886,6.918827 1.8666,15.065977 -4.7622,19.188157 l -3.64354,2.26576 -67,0.17363 c -38.72917,0.10037 -68.328481,-0.21705 -70.148401,-0.75226 z"
       id="path798"
       inkscape:export-filename="/home/jini/ws/images/aa/icons/view.png"
       inkscape:export-xdpi="96.080002"
       inkscape:export-ydpi="96.080002" />
  </g>
</svg>
