<?xml version="1.0" encoding="UTF-8" standalone="no"?>
<!-- Created with Inkscape (http://www.inkscape.org/) -->

<svg
   version="1.1"
   id="svg1048"
   width="512"
   height="512"
   viewBox="0 0 512 512"
   sodipodi:docname="warning.svg"
   inkscape:version="1.1.2 (0a00cf5339, 2022-02-04)"
   xmlns:inkscape="http://www.inkscape.org/namespaces/inkscape"
   xmlns:sodipodi="http://sodipodi.sourceforge.net/DTD/sodipodi-0.dtd"
   xmlns="http://www.w3.org/2000/svg"
   xmlns:svg="http://www.w3.org/2000/svg">
  <defs
     id="defs1052" />
  <sodipodi:namedview
     id="namedview1050"
     pagecolor="#ffffff"
     bordercolor="#666666"
     borderopacity="1.0"
     inkscape:pageshadow="2"
     inkscape:pageopacity="0.0"
     inkscape:pagecheckerboard="0"
     showgrid="false"
     inkscape:zoom="1.6443341"
     inkscape:cx="273.05886"
     inkscape:cy="273.36294"
     inkscape:window-width="2560"
     inkscape:window-height="1570"
     inkscape:window-x="0"
     inkscape:window-y="0"
     inkscape:window-maximized="1"
     inkscape:current-layer="g1054" />
  <g
     inkscape:groupmode="layer"
     inkscape:label="Image"
     id="g1054">
    <path
       style="fill:#000000;stroke-width:0.997359"
       d="M 34.744842,473.65229 C 17.487732,469.0116 4.2138723,454.1469 1.4643023,436.38317 c -1.39571999,-9.01715 -0.0892,-17.53756 4.02451,-26.24551 4.1209,-8.7232 212.1651977,-353.455331 215.9054777,-357.758221 4.60599,-5.29882 12.05861,-10.59618 18.4624,-13.12318 8.21371,-3.24121 24.18143,-3.24121 32.39514,0 6.3944,2.52329 13.85974,7.82617 18.43361,13.09401 3.72592,4.29124 211.83897,349.119911 215.93397,357.787391 12.28381,25.99989 -1.87634,56.3209 -29.68492,63.56411 -5.18972,1.35175 -30.83077,1.52126 -221.33911,1.46323 C 70.591522,475.1086 39.365122,474.89475 34.744842,473.65229 Z M 471.03972,440.72901 c 4.71118,-2.2356 7.9147,-8.94801 6.57906,-13.78528 -1.41406,-5.12131 -209.15661,-349.544601 -213.13786,-353.368341 -5.78877,-5.55977 -11.06455,-5.55977 -16.85332,0 -3.72513,3.57775 -211.621698,347.984991 -213.240878,353.260761 -0.84144,2.74166 -0.64221,4.09031 1.15164,7.79592 4.05974,8.3863 -17.47371,7.63749 220.365168,7.663 191.71337,0.0205 212.10548,-0.12789 215.13619,-1.56606 z M 249.4386,399.06166 c -9.80712,-3.20176 -16.34238,-12.22835 -16.3017,-22.51608 0.0797,-20.16249 23.14702,-30.62133 38.6695,-17.53299 5.18792,4.37439 7.61149,9.93721 7.61531,17.47947 0.004,7.00522 -1.65764,11.31865 -6.27686,16.29843 -5.76132,6.21102 -15.77587,8.86024 -23.70625,6.27117 z m -0.24338,-68.39618 c -4.09583,-1.03271 -8.21277,-3.9685 -9.71195,-6.92557 -0.63706,-1.25658 -1.40876,-11.22485 -1.80702,-23.3418 -0.38231,-11.63172 -1.33664,-35.06175 -2.12074,-52.06672 -1.73672,-37.66542 -1.85458,-60.66637 -0.32612,-63.64723 3.55181,-6.92689 11.99819,-11.6534 20.82487,-11.6534 8.82668,0 17.27306,4.72651 20.82487,11.6534 1.52738,2.97876 1.41086,25.96017 -0.32272,63.64723 -0.78222,17.00497 -1.72972,40.34318 -2.10556,51.86268 -0.76008,23.29684 -1.14816,24.77676 -7.42198,28.30284 -4.19702,2.35887 -12.88768,3.41565 -17.83365,2.16857 z"
       id="path1237"
       inkscape:export-filename="/home/jini/ws/images/aa/icons/warning.png"
       inkscape:export-xdpi="96"
       inkscape:export-ydpi="96" />
  </g>
</svg>
